#N canvas 344 425 426 566 10;
#X declare -lib mrpeach;
#X obj 77 47 - 100;
#X obj 219 49 - 100;
#X obj 220 78 vu 15 120 empty empty -1 -8 0 8 -66577 -1 1 0;
#X obj 77 22 env~ 800;
#X obj -68 -250 tgl 15 0 empty empty empty 17 7 0 10 -262144 -1 -1
1 1;
#X msg -68 -226 \; pd dsp \$1;
#X text -72 -291 Turn DSP On / Off;
#N canvas 590 19 1032 297 OSC_ENG 1;
#X obj -463 -200 sendOSC;
#X obj -470 -420 import mrpeach;
#X text -465 -361 E.G. send /1/fader1 1;
#X text 71 -317 Receive OSC Data;
#X obj -312 -200 print Loop;
#X obj 191 -200 print DSP;
#X obj 73 -200 print feedback;
#X text -470 -403 -------------------------;
#X obj -463 -381 loadbang;
#X obj -161 -200 print sound_generation;
#N canvas 259 133 565 143 loop_page 0;
#X obj 15 -75 inlet;
#X obj 15 -21 OSCroute /looptoggle;
#X obj 283 -21 OSCroute /loopfader;
#N canvas 23 232 875 308 loops_subpatch 0;
#X obj 2 6 inlet;
#X obj 2 47 OSCroute /1;
#X obj 246 47 OSCroute /2;
#X obj 487 52 OSCroute /3;
#X obj 2 89 OSCroute /1;
#X obj 83 89 OSCroute /2;
#X obj 165 89 OSCroute /3;
#X obj 246 91 OSCroute /1;
#X obj 327 91 OSCroute /2;
#X obj 409 91 OSCroute /3;
#X obj 487 91 OSCroute /1;
#X obj 568 91 OSCroute /2;
#X obj 650 91 OSCroute /3;
#X obj 2 122 s loop_t_11;
#X obj 83 123 s loop_t_12;
#X obj 165 124 s loop_t_13;
#X obj 246 123 s loop_t_21;
#X obj 327 122 s loop_t_22;
#X obj 409 123 s loop_t_23;
#X obj 568 121 s loop_t_32;
#X obj 650 122 s loop_t_33;
#X obj 487 122 s loop_t_31;
#X connect 0 0 1 0;
#X connect 0 0 2 0;
#X connect 0 0 3 0;
#X connect 1 0 4 0;
#X connect 1 0 5 0;
#X connect 1 0 6 0;
#X connect 2 0 7 0;
#X connect 2 0 8 0;
#X connect 2 0 9 0;
#X connect 3 0 10 0;
#X connect 3 0 11 0;
#X connect 3 0 12 0;
#X connect 4 0 13 0;
#X connect 5 0 14 0;
#X connect 6 0 15 0;
#X connect 7 0 16 0;
#X connect 8 0 17 0;
#X connect 9 0 18 0;
#X connect 10 0 21 0;
#X connect 11 0 19 0;
#X connect 12 0 20 0;
#X restore 15 19 pd loops_subpatch;
#X obj 161 -21 OSCroute /record;
#N canvas 444 66 754 169 loops_subpatch 0;
#X obj 2 6 inlet;
#X obj 2 47 OSCroute /1;
#X obj 246 47 OSCroute /2;
#X obj 487 52 OSCroute /3;
#X obj 2 89 OSCroute /1;
#X obj 83 89 OSCroute /2;
#X obj 165 89 OSCroute /3;
#X obj 246 91 OSCroute /1;
#X obj 327 91 OSCroute /2;
#X obj 409 91 OSCroute /3;
#X obj 487 91 OSCroute /1;
#X obj 568 91 OSCroute /2;
#X obj 650 91 OSCroute /3;
#X obj 2 122 s loop_r_11;
#X obj 83 123 s loop_r_12;
#X obj 165 124 s loop_r_13;
#X obj 246 123 s loop_r_21;
#X obj 327 122 s loop_r_22;
#X obj 409 123 s loop_r_23;
#X obj 568 121 s loop_r_32;
#X obj 650 122 s loop_r_33;
#X obj 487 122 s loop_r_31;
#X connect 0 0 1 0;
#X connect 0 0 2 0;
#X connect 0 0 3 0;
#X connect 1 0 4 0;
#X connect 1 0 5 0;
#X connect 1 0 6 0;
#X connect 2 0 7 0;
#X connect 2 0 8 0;
#X connect 2 0 9 0;
#X connect 3 0 10 0;
#X connect 3 0 11 0;
#X connect 3 0 12 0;
#X connect 4 0 13 0;
#X connect 5 0 14 0;
#X connect 6 0 15 0;
#X connect 7 0 16 0;
#X connect 8 0 17 0;
#X connect 9 0 18 0;
#X connect 10 0 21 0;
#X connect 11 0 19 0;
#X connect 12 0 20 0;
#X restore 161 19 pd loops_subpatch;
#N canvas 444 66 391 250 loops_subpatch 0;
#X obj 16 12 inlet;
#X obj 16 62 OSCroute /1;
#X obj 103 62 OSCroute /2;
#X obj 181 61 OSCroute /3;
#X obj 34 84 OSCroute /4;
#X obj 121 84 OSCroute /5;
#X obj 199 83 OSCroute /6;
#X obj 53 106 OSCroute /7;
#X obj 140 106 OSCroute /8;
#X obj 219 108 OSCroute /9;
#X obj 62 152 s loop_f_1;
#X obj 144 151 s loop_f_2;
#X obj 221 152 s loop_f_3;
#X obj 85 175 s loop_f_4;
#X obj 172 176 s loop_f_5;
#X obj 249 175 s loop_f_6;
#X obj 116 204 s loop_f_7;
#X obj 282 206 s loop_f_9;
#X obj 201 205 s loop_f_8;
#X connect 0 0 1 0;
#X connect 0 0 2 0;
#X connect 0 0 3 0;
#X connect 0 0 4 0;
#X connect 0 0 7 0;
#X connect 0 0 5 0;
#X connect 0 0 8 0;
#X connect 0 0 6 0;
#X connect 0 0 9 0;
#X connect 1 0 10 0;
#X connect 2 0 11 0;
#X connect 3 0 12 0;
#X connect 4 0 13 0;
#X connect 5 0 14 0;
#X connect 6 0 15 0;
#X connect 7 0 16 0;
#X connect 8 0 18 0;
#X connect 9 0 17 0;
#X restore 283 19 pd loops_subpatch;
#X obj 415 19 s loop_mute;
#X obj 415 -21 OSCroute /loop_mute;
#X connect 0 0 1 0;
#X connect 0 0 2 0;
#X connect 0 0 4 0;
#X connect 0 0 8 0;
#X connect 1 0 3 0;
#X connect 2 0 6 0;
#X connect 4 0 5 0;
#X connect 8 0 7 0;
#X restore -241 -200 pd loop_page;
#N canvas 612 196 770 251 sound_page 0;
#X obj 15 9 inlet;
#X obj 120 108 s osc_1_amp;
#X obj 206 108 s osc_1_toggle;
#X obj 426 110 s osc_2_amp;
#X obj 612 109 s osc_2_toggle;
#X obj 316 108 s osc_1_freq;
#X obj 516 108 s osc_2_freq;
#X obj 120 52 OSCroute /osc1;
#X obj 120 83 OSCroute /amp;
#X obj 206 83 OSCroute /toggle;
#X obj 316 83 OSCroute /freq;
#X obj 426 83 OSCroute /amp;
#X obj 612 82 OSCroute /toggle;
#X obj 516 83 OSCroute /freq;
#X obj 426 52 OSCroute /osc2;
#X obj 15 52 OSCroute /osc;
#X obj 15 108 s osc_pan;
#X obj 120 176 OSCroute /amp;
#X obj 206 176 OSCroute /toggle;
#X obj 316 176 OSCroute /freq;
#X obj 120 145 OSCroute /osc3;
#X obj 120 201 s osc_3_amp;
#X obj 206 201 s osc_3_toggle;
#X obj 316 201 s osc_3_freq;
#X obj 412 176 OSCroute /index;
#X obj 412 201 s osc_3_index;
#X obj 514 176 OSCroute /carrier;
#X obj 514 201 s osc_3_carrier;
#X connect 0 0 7 0;
#X connect 0 0 14 0;
#X connect 0 0 15 0;
#X connect 0 0 20 0;
#X connect 7 0 8 0;
#X connect 7 0 9 0;
#X connect 7 0 10 0;
#X connect 8 0 1 0;
#X connect 9 0 2 0;
#X connect 10 0 5 0;
#X connect 11 0 3 0;
#X connect 12 0 4 0;
#X connect 13 0 6 0;
#X connect 14 0 11 0;
#X connect 14 0 12 0;
#X connect 14 0 13 0;
#X connect 15 0 16 0;
#X connect 17 0 21 0;
#X connect 18 0 22 0;
#X connect 19 0 23 0;
#X connect 20 0 17 0;
#X connect 20 0 18 0;
#X connect 20 0 19 0;
#X connect 20 0 24 0;
#X connect 20 0 26 0;
#X connect 24 0 25 0;
#X connect 26 0 27 0;
#X restore -17 -200 pd sound_page;
#N canvas 73 435 383 133 dsp_page 0;
#X obj 19 -25 inlet;
#X obj 19 46 s dsp_onoff;
#X obj 185 46 s dsp_masterout;
#X obj 19 19 OSCroute /onoff;
#X obj 185 19 OSCroute /masterout;
#X connect 0 0 3 0;
#X connect 0 0 4 0;
#X connect 3 0 1 0;
#X connect 4 0 2 0;
#X restore 254 -200 pd dsp_page;
#X obj -289 -345 r main_dsp_onoff;
#X obj -312 -242 OSCroute /1;
#X obj -161 -242 OSCroute /2;
#X obj 73 -242 OSCroute /3;
#X obj 191 -242 OSCroute /4;
#X msg -289 -316 send /4/onoff \$1;
#N canvas 404 35 201 262 cpumeter 0;
#X obj -957 53 cputime;
#X obj -957 -56 loadbang;
#X msg -957 -28 1;
#X obj -957 25 t b b;
#X obj -957 113 * 0.1;
#X obj -957 82 int;
#X obj -957 170 s cpu;
#X obj -957 -3 metro 1000;
#X msg -957 141 send /3/cpu_lab \$1;
#X connect 0 0 5 0;
#X connect 1 0 2 0;
#X connect 2 0 7 0;
#X connect 3 0 0 0;
#X connect 3 1 0 1;
#X connect 4 0 8 0;
#X connect 5 0 4 0;
#X connect 7 0 3 0;
#X connect 8 0 6 0;
#X restore -386 -383 pd cpumeter;
#X obj -448 -319 r cpu;
#X obj 73 -302 dumpOSC 8001;
#X msg -463 -346 connect 192.168.1.26 8000;
#N canvas 390 241 209 198 current_time 0;
#X floatatom 18 92 5 0 0 0 - - -;
#X floatatom 55 92 5 0 0 0 - - -;
#X floatatom 93 93 5 0 0 0 - - -;
#X obj 18 39 metro 1000;
#X obj 18 11 loadbang;
#X obj 18 178 s time;
#X obj 18 130 pack \$1 \$2 \$3;
#X obj 18 65 time GMT;
#X msg 18 153 send /3/time \$1:\$2:\$3;
#X connect 0 0 6 0;
#X connect 1 0 6 1;
#X connect 2 0 6 2;
#X connect 3 0 7 0;
#X connect 4 0 3 0;
#X connect 6 0 8 0;
#X connect 7 0 0 0;
#X connect 7 1 1 0;
#X connect 7 2 2 0;
#X connect 8 0 5 0;
#X restore -309 -383 pd current_time;
#X obj -168 -343 r time;
#X connect 8 0 22 0;
#X connect 13 0 18 0;
#X connect 14 0 10 0;
#X connect 15 0 11 0;
#X connect 17 0 12 0;
#X connect 18 0 0 0;
#X connect 20 0 0 0;
#X connect 21 0 14 0;
#X connect 21 0 15 0;
#X connect 21 0 16 0;
#X connect 21 0 17 0;
#X connect 22 0 0 0;
#X connect 24 0 0 0;
#X restore -70 -319 pd OSC_ENG;
#X text 215 5 OUTPUT LV;
#X text 75 3 INPUT LV;
#X text -73 -306 ----------------------;
#X obj -47 -250 s main_dsp_onoff;
#X obj -68 -273 r dsp_onoff;
#N canvas 76 129 990 340 loopers 0;
#N canvas 169 343 480 575 looper_one 0;
#X obj 38 -21 inlet~;
#X obj 40 104 writesf~ 1;
#X msg 349 42 stop;
#X obj 88 18 line~;
#X obj 39 54 *~;
#X obj 88 -47 bng 15 250 50 0 empty empty empty 17 7 0 10 -262144 -1
-1;
#X obj 123 -47 bng 15 250 50 0 empty empty empty 17 7 0 10 -262144
-1 -1;
#X obj 307 157 r loop_f_1;
#X obj 283 -22 sel 1 0;
#X obj 283 -47 r loop_r_11;
#X msg 228 234 start;
#X msg 278 234 stop;
#X obj 228 182 sel 1 0;
#X obj 39 472 outlet~;
#X obj 40 263 readsf~ 1;
#X obj 39 422 *~;
#X obj 228 157 r loop_t_11;
#X obj 40 183 bng 15 250 50 0 empty empty empty 17 7 0 10 -262144 -1
-1;
#X msg 283 42 start;
#X obj 102 263 t b b;
#X obj 228 208 delay 1;
#X obj 40 204 delay 50;
#X obj 228 255 delay 1;
#X obj 227 406 line~;
#X obj 227 310 sel 1 0;
#X obj 39 446 *~;
#X msg 262 367 0 50;
#X msg 227 367 1 50;
#X obj 278 208 delay 50;
#X text 174 428 Prevent click when stopping audio;
#X text 306 133 Fader Value;
#X text 345 -7 Start Stop;
#X text 14 -41 Audio IN;
#X text 38 490 Audio OUT;
#X msg 40 234 open ./samples/loop1.wav;
#X msg 126 18 open ./samples/loop1.wav;
#X msg 123 -21 0 12;
#X obj 349 18 delay 12;
#X msg 88 -21 1 12;
#X obj 283 18 delay 12;
#X connect 0 0 4 0;
#X connect 2 0 1 0;
#X connect 2 0 17 0;
#X connect 3 0 4 1;
#X connect 4 0 1 0;
#X connect 5 0 38 0;
#X connect 6 0 36 0;
#X connect 7 0 25 1;
#X connect 8 0 35 0;
#X connect 8 0 39 0;
#X connect 8 1 6 0;
#X connect 8 1 37 0;
#X connect 9 0 8 0;
#X connect 10 0 14 0;
#X connect 11 0 14 0;
#X connect 12 0 34 0;
#X connect 12 0 20 0;
#X connect 12 1 28 0;
#X connect 14 0 15 0;
#X connect 14 1 19 0;
#X connect 15 0 25 0;
#X connect 16 0 12 0;
#X connect 16 0 24 0;
#X connect 17 0 21 0;
#X connect 18 0 1 0;
#X connect 18 0 5 0;
#X connect 19 0 34 0;
#X connect 19 1 22 0;
#X connect 20 0 10 0;
#X connect 21 0 34 0;
#X connect 22 0 10 0;
#X connect 23 0 15 1;
#X connect 24 0 27 0;
#X connect 24 1 26 0;
#X connect 25 0 13 0;
#X connect 26 0 23 0;
#X connect 27 0 23 0;
#X connect 28 0 11 0;
#X connect 34 0 14 0;
#X connect 35 0 1 0;
#X connect 36 0 3 0;
#X connect 37 0 2 0;
#X connect 38 0 3 0;
#X connect 39 0 18 0;
#X restore 36 52 pd looper_one;
#X obj 432 8 inlet~;
#X obj 157 297 outlet~;
#N canvas 96 173 462 578 looper_two 0;
#X obj 38 -21 inlet~;
#X obj 40 104 writesf~ 1;
#X msg 349 42 stop;
#X obj 88 18 line~;
#X obj 39 54 *~;
#X obj 88 -47 bng 15 250 50 0 empty empty empty 17 7 0 10 -262144 -1
-1;
#X obj 123 -47 bng 15 250 50 0 empty empty empty 17 7 0 10 -262144
-1 -1;
#X obj 283 -22 sel 1 0;
#X msg 228 234 start;
#X msg 278 234 stop;
#X obj 228 182 sel 1 0;
#X obj 39 472 outlet~;
#X obj 40 263 readsf~ 1;
#X obj 39 422 *~;
#X obj 40 183 bng 15 250 50 0 empty empty empty 17 7 0 10 -262144 -1
-1;
#X msg 283 42 start;
#X obj 102 263 t b b;
#X obj 228 208 delay 1;
#X obj 40 204 delay 50;
#X obj 228 255 delay 1;
#X obj 227 406 line~;
#X obj 227 310 sel 1 0;
#X obj 39 446 *~;
#X msg 262 367 0 50;
#X msg 227 367 1 50;
#X obj 278 208 delay 50;
#X text 174 428 Prevent click when stopping audio;
#X text 306 133 Fader Value;
#X text 345 -7 Start Stop;
#X text 14 -41 Audio IN;
#X text 38 490 Audio OUT;
#X msg 126 18 open ./samples/loop2.wav;
#X obj 283 -47 r loop_r_12;
#X obj 307 157 r loop_f_2;
#X obj 228 157 r loop_t_12;
#X msg 40 234 open ./samples/loop2.wav;
#X msg 88 -21 1 12;
#X msg 123 -21 0 12;
#X obj 283 18 delay 12;
#X obj 349 18 delay 12;
#X connect 0 0 4 0;
#X connect 2 0 1 0;
#X connect 2 0 14 0;
#X connect 3 0 4 1;
#X connect 4 0 1 0;
#X connect 5 0 36 0;
#X connect 6 0 37 0;
#X connect 7 0 31 0;
#X connect 7 0 38 0;
#X connect 7 1 6 0;
#X connect 7 1 39 0;
#X connect 8 0 12 0;
#X connect 9 0 12 0;
#X connect 10 0 35 0;
#X connect 10 0 17 0;
#X connect 10 1 25 0;
#X connect 12 0 13 0;
#X connect 12 1 16 0;
#X connect 13 0 22 0;
#X connect 14 0 18 0;
#X connect 15 0 1 0;
#X connect 15 0 5 0;
#X connect 16 0 35 0;
#X connect 16 1 19 0;
#X connect 17 0 8 0;
#X connect 18 0 35 0;
#X connect 19 0 8 0;
#X connect 20 0 13 1;
#X connect 21 0 24 0;
#X connect 21 1 23 0;
#X connect 22 0 11 0;
#X connect 23 0 20 0;
#X connect 24 0 20 0;
#X connect 25 0 9 0;
#X connect 31 0 1 0;
#X connect 32 0 7 0;
#X connect 33 0 22 1;
#X connect 34 0 10 0;
#X connect 34 0 21 0;
#X connect 35 0 12 0;
#X connect 36 0 3 0;
#X connect 37 0 3 0;
#X connect 38 0 15 0;
#X connect 39 0 2 0;
#X restore 124 53 pd looper_two;
#N canvas 641 1 462 578 looper_three 0;
#X obj 38 -21 inlet~;
#X obj 40 104 writesf~ 1;
#X msg 349 42 stop;
#X obj 88 18 line~;
#X obj 39 54 *~;
#X obj 88 -47 bng 15 250 50 0 empty empty empty 17 7 0 10 -262144 -1
-1;
#X obj 123 -47 bng 15 250 50 0 empty empty empty 17 7 0 10 -262144
-1 -1;
#X obj 283 -22 sel 1 0;
#X msg 228 234 start;
#X msg 278 234 stop;
#X obj 228 182 sel 1 0;
#X obj 39 472 outlet~;
#X obj 40 263 readsf~ 1;
#X obj 39 422 *~;
#X obj 40 183 bng 15 250 50 0 empty empty empty 17 7 0 10 -262144 -1
-1;
#X msg 283 42 start;
#X obj 102 263 t b b;
#X obj 228 208 delay 1;
#X obj 40 204 delay 50;
#X obj 228 255 delay 1;
#X obj 227 406 line~;
#X obj 227 310 sel 1 0;
#X obj 39 446 *~;
#X msg 262 367 0 50;
#X msg 227 367 1 50;
#X obj 278 208 delay 50;
#X text 174 428 Prevent click when stopping audio;
#X text 306 133 Fader Value;
#X text 345 -7 Start Stop;
#X text 14 -41 Audio IN;
#X text 38 490 Audio OUT;
#X obj 283 -47 r loop_r_13;
#X msg 126 18 open ./samples/loop3.wav;
#X obj 228 157 r loop_t_13;
#X obj 307 157 r loop_f_3;
#X msg 40 234 open ./samples/loop3.wav;
#X msg 88 -21 1 12;
#X msg 123 -21 0 12;
#X obj 283 18 delay 12;
#X obj 349 18 delay 12;
#X connect 0 0 4 0;
#X connect 2 0 1 0;
#X connect 2 0 14 0;
#X connect 3 0 4 1;
#X connect 4 0 1 0;
#X connect 5 0 36 0;
#X connect 6 0 37 0;
#X connect 7 0 32 0;
#X connect 7 0 38 0;
#X connect 7 1 6 0;
#X connect 7 1 39 0;
#X connect 8 0 12 0;
#X connect 9 0 12 0;
#X connect 10 0 35 0;
#X connect 10 0 17 0;
#X connect 10 1 25 0;
#X connect 12 0 13 0;
#X connect 12 1 16 0;
#X connect 13 0 22 0;
#X connect 14 0 18 0;
#X connect 15 0 1 0;
#X connect 15 0 5 0;
#X connect 16 0 35 0;
#X connect 16 1 19 0;
#X connect 17 0 8 0;
#X connect 18 0 35 0;
#X connect 19 0 8 0;
#X connect 20 0 13 1;
#X connect 21 0 24 0;
#X connect 21 1 23 0;
#X connect 22 0 11 0;
#X connect 23 0 20 0;
#X connect 24 0 20 0;
#X connect 25 0 9 0;
#X connect 31 0 7 0;
#X connect 32 0 1 0;
#X connect 33 0 10 0;
#X connect 33 0 21 0;
#X connect 34 0 22 1;
#X connect 35 0 12 0;
#X connect 36 0 3 0;
#X connect 37 0 3 0;
#X connect 38 0 15 0;
#X connect 39 0 2 0;
#X restore 215 55 pd looper_three;
#N canvas 56 207 462 578 looper_four 0;
#X obj 38 -21 inlet~;
#X obj 40 104 writesf~ 1;
#X msg 349 42 stop;
#X obj 88 18 line~;
#X obj 39 54 *~;
#X obj 88 -47 bng 15 250 50 0 empty empty empty 17 7 0 10 -262144 -1
-1;
#X obj 123 -47 bng 15 250 50 0 empty empty empty 17 7 0 10 -262144
-1 -1;
#X obj 283 -22 sel 1 0;
#X msg 228 234 start;
#X msg 278 234 stop;
#X obj 228 182 sel 1 0;
#X obj 39 472 outlet~;
#X obj 40 263 readsf~ 1;
#X obj 39 422 *~;
#X obj 40 183 bng 15 250 50 0 empty empty empty 17 7 0 10 -262144 -1
-1;
#X msg 283 42 start;
#X obj 102 263 t b b;
#X obj 228 208 delay 1;
#X obj 40 204 delay 50;
#X obj 228 255 delay 1;
#X obj 227 406 line~;
#X obj 227 310 sel 1 0;
#X obj 39 446 *~;
#X msg 262 367 0 50;
#X msg 227 367 1 50;
#X obj 278 208 delay 50;
#X text 174 428 Prevent click when stopping audio;
#X text 306 133 Fader Value;
#X text 345 -7 Start Stop;
#X text 14 -41 Audio IN;
#X text 38 490 Audio OUT;
#X obj 283 -47 r loop_r_21;
#X msg 126 18 open ./samples/loop4.wav;
#X obj 307 157 r loop_f_4;
#X obj 228 157 r loop_t_21;
#X msg 40 234 open ./samples/loop4.wav;
#X obj 349 18 delay 12;
#X obj 283 18 delay 12;
#X msg 123 -21 0 12;
#X msg 88 -21 1 12;
#X connect 0 0 4 0;
#X connect 2 0 1 0;
#X connect 2 0 14 0;
#X connect 3 0 4 1;
#X connect 4 0 1 0;
#X connect 5 0 39 0;
#X connect 6 0 38 0;
#X connect 7 0 32 0;
#X connect 7 0 37 0;
#X connect 7 1 6 0;
#X connect 7 1 36 0;
#X connect 8 0 12 0;
#X connect 9 0 12 0;
#X connect 10 0 35 0;
#X connect 10 0 17 0;
#X connect 10 1 25 0;
#X connect 12 0 13 0;
#X connect 12 1 16 0;
#X connect 13 0 22 0;
#X connect 14 0 18 0;
#X connect 15 0 1 0;
#X connect 15 0 5 0;
#X connect 16 0 35 0;
#X connect 16 1 19 0;
#X connect 17 0 8 0;
#X connect 18 0 35 0;
#X connect 19 0 8 0;
#X connect 20 0 13 1;
#X connect 21 0 24 0;
#X connect 21 1 23 0;
#X connect 22 0 11 0;
#X connect 23 0 20 0;
#X connect 24 0 20 0;
#X connect 25 0 9 0;
#X connect 31 0 7 0;
#X connect 32 0 1 0;
#X connect 33 0 22 1;
#X connect 34 0 10 0;
#X connect 34 0 21 0;
#X connect 35 0 12 0;
#X connect 36 0 2 0;
#X connect 37 0 15 0;
#X connect 38 0 3 0;
#X connect 39 0 3 0;
#X restore 327 59 pd looper_four;
#N canvas 641 1 462 578 looper_five 0;
#X obj 38 -21 inlet~;
#X obj 40 104 writesf~ 1;
#X msg 349 42 stop;
#X obj 88 18 line~;
#X obj 39 54 *~;
#X obj 88 -47 bng 15 250 50 0 empty empty empty 17 7 0 10 -262144 -1
-1;
#X obj 123 -47 bng 15 250 50 0 empty empty empty 17 7 0 10 -262144
-1 -1;
#X obj 283 -22 sel 1 0;
#X msg 228 234 start;
#X msg 278 234 stop;
#X obj 228 182 sel 1 0;
#X obj 39 472 outlet~;
#X obj 40 263 readsf~ 1;
#X obj 39 422 *~;
#X obj 40 183 bng 15 250 50 0 empty empty empty 17 7 0 10 -262144 -1
-1;
#X msg 283 42 start;
#X obj 102 263 t b b;
#X obj 228 208 delay 1;
#X obj 40 204 delay 50;
#X obj 228 255 delay 1;
#X obj 227 406 line~;
#X obj 227 310 sel 1 0;
#X obj 39 446 *~;
#X msg 262 367 0 50;
#X msg 227 367 1 50;
#X obj 278 208 delay 50;
#X text 174 428 Prevent click when stopping audio;
#X text 306 133 Fader Value;
#X text 345 -7 Start Stop;
#X text 14 -41 Audio IN;
#X text 38 490 Audio OUT;
#X obj 283 -47 r loop_r_22;
#X msg 126 18 open ./samples/loop5.wav;
#X msg 40 234 open ./samples/loop5.wav;
#X obj 228 157 r loop_t_22;
#X obj 307 157 r loop_f_5;
#X msg 88 -21 1 12;
#X msg 123 -21 0 12;
#X obj 283 18 delay 12;
#X obj 349 18 delay 12;
#X connect 0 0 4 0;
#X connect 2 0 1 0;
#X connect 2 0 14 0;
#X connect 3 0 4 1;
#X connect 4 0 1 0;
#X connect 5 0 36 0;
#X connect 6 0 37 0;
#X connect 7 0 32 0;
#X connect 7 0 38 0;
#X connect 7 1 6 0;
#X connect 7 1 39 0;
#X connect 8 0 12 0;
#X connect 9 0 12 0;
#X connect 10 0 33 0;
#X connect 10 0 17 0;
#X connect 10 1 25 0;
#X connect 12 0 13 0;
#X connect 12 1 16 0;
#X connect 13 0 22 0;
#X connect 14 0 18 0;
#X connect 15 0 1 0;
#X connect 15 0 5 0;
#X connect 16 0 33 0;
#X connect 16 1 19 0;
#X connect 17 0 8 0;
#X connect 18 0 33 0;
#X connect 19 0 8 0;
#X connect 20 0 13 1;
#X connect 21 0 24 0;
#X connect 21 1 23 0;
#X connect 22 0 11 0;
#X connect 23 0 20 0;
#X connect 24 0 20 0;
#X connect 25 0 9 0;
#X connect 31 0 7 0;
#X connect 32 0 1 0;
#X connect 33 0 12 0;
#X connect 34 0 10 0;
#X connect 34 0 21 0;
#X connect 35 0 22 1;
#X connect 36 0 3 0;
#X connect 37 0 3 0;
#X connect 38 0 15 0;
#X connect 39 0 2 0;
#X restore 431 60 pd looper_five;
#N canvas 641 1 462 578 looper_six 0;
#X obj 38 -21 inlet~;
#X obj 40 104 writesf~ 1;
#X msg 349 42 stop;
#X obj 88 18 line~;
#X obj 39 54 *~;
#X obj 88 -47 bng 15 250 50 0 empty empty empty 17 7 0 10 -262144 -1
-1;
#X obj 123 -47 bng 15 250 50 0 empty empty empty 17 7 0 10 -262144
-1 -1;
#X obj 283 -22 sel 1 0;
#X msg 228 234 start;
#X msg 278 234 stop;
#X obj 228 182 sel 1 0;
#X obj 39 472 outlet~;
#X obj 40 263 readsf~ 1;
#X obj 39 422 *~;
#X obj 40 183 bng 15 250 50 0 empty empty empty 17 7 0 10 -262144 -1
-1;
#X msg 283 42 start;
#X obj 102 263 t b b;
#X obj 228 208 delay 1;
#X obj 40 204 delay 50;
#X obj 228 255 delay 1;
#X obj 227 406 line~;
#X obj 227 310 sel 1 0;
#X obj 39 446 *~;
#X msg 262 367 0 50;
#X msg 227 367 1 50;
#X obj 278 208 delay 50;
#X text 174 428 Prevent click when stopping audio;
#X text 306 133 Fader Value;
#X text 345 -7 Start Stop;
#X text 14 -41 Audio IN;
#X text 38 490 Audio OUT;
#X msg 126 18 open ./samples/loop6.wav;
#X msg 40 234 open ./samples/loop6.wav;
#X obj 307 157 r loop_f_6;
#X obj 228 157 r loop_t_23;
#X obj 283 -47 r loop_r_23;
#X obj 283 18 delay 12;
#X obj 349 18 delay 12;
#X msg 123 -21 0 12;
#X msg 88 -21 1 12;
#X connect 0 0 4 0;
#X connect 2 0 1 0;
#X connect 2 0 14 0;
#X connect 3 0 4 1;
#X connect 4 0 1 0;
#X connect 5 0 39 0;
#X connect 6 0 38 0;
#X connect 7 0 31 0;
#X connect 7 0 36 0;
#X connect 7 1 6 0;
#X connect 7 1 37 0;
#X connect 8 0 12 0;
#X connect 9 0 12 0;
#X connect 10 0 32 0;
#X connect 10 0 17 0;
#X connect 10 1 25 0;
#X connect 12 0 13 0;
#X connect 12 1 16 0;
#X connect 13 0 22 0;
#X connect 14 0 18 0;
#X connect 15 0 1 0;
#X connect 15 0 5 0;
#X connect 16 0 32 0;
#X connect 16 1 19 0;
#X connect 17 0 8 0;
#X connect 18 0 32 0;
#X connect 19 0 8 0;
#X connect 20 0 13 1;
#X connect 21 0 24 0;
#X connect 21 1 23 0;
#X connect 22 0 11 0;
#X connect 23 0 20 0;
#X connect 24 0 20 0;
#X connect 25 0 9 0;
#X connect 31 0 1 0;
#X connect 32 0 12 0;
#X connect 33 0 22 1;
#X connect 34 0 10 0;
#X connect 34 0 21 0;
#X connect 35 0 7 0;
#X connect 36 0 15 0;
#X connect 37 0 2 0;
#X connect 38 0 3 0;
#X connect 39 0 3 0;
#X restore 543 61 pd looper_six;
#N canvas 408 169 462 578 looper_seven 0;
#X obj 38 -21 inlet~;
#X obj 40 104 writesf~ 1;
#X msg 349 42 stop;
#X obj 88 18 line~;
#X obj 39 54 *~;
#X obj 88 -47 bng 15 250 50 0 empty empty empty 17 7 0 10 -262144 -1
-1;
#X obj 123 -47 bng 15 250 50 0 empty empty empty 17 7 0 10 -262144
-1 -1;
#X obj 283 -22 sel 1 0;
#X msg 228 234 start;
#X msg 278 234 stop;
#X obj 228 182 sel 1 0;
#X obj 39 472 outlet~;
#X obj 40 263 readsf~ 1;
#X obj 39 422 *~;
#X obj 40 183 bng 15 250 50 0 empty empty empty 17 7 0 10 -262144 -1
-1;
#X msg 283 42 start;
#X obj 102 263 t b b;
#X obj 228 208 delay 1;
#X obj 40 204 delay 50;
#X obj 228 255 delay 1;
#X obj 227 406 line~;
#X obj 227 310 sel 1 0;
#X obj 39 446 *~;
#X msg 262 367 0 50;
#X msg 227 367 1 50;
#X obj 278 208 delay 50;
#X text 174 428 Prevent click when stopping audio;
#X text 306 133 Fader Value;
#X text 345 -7 Start Stop;
#X text 14 -41 Audio IN;
#X text 38 490 Audio OUT;
#X obj 283 -47 r loop_r_31;
#X msg 126 18 open ./samples/loop7.wav;
#X obj 228 157 r loop_t_31;
#X obj 307 157 r loop_f_7;
#X msg 40 235 open ./samples/loop7.wav;
#X msg 88 -21 1 12;
#X msg 123 -21 0 12;
#X obj 349 18 delay 12;
#X obj 283 18 delay 12;
#X connect 0 0 4 0;
#X connect 2 0 1 0;
#X connect 2 0 14 0;
#X connect 3 0 4 1;
#X connect 4 0 1 0;
#X connect 5 0 36 0;
#X connect 6 0 37 0;
#X connect 7 0 32 0;
#X connect 7 0 39 0;
#X connect 7 1 6 0;
#X connect 7 1 38 0;
#X connect 8 0 12 0;
#X connect 9 0 12 0;
#X connect 10 0 35 0;
#X connect 10 0 17 0;
#X connect 10 1 25 0;
#X connect 12 0 13 0;
#X connect 12 1 16 0;
#X connect 13 0 22 0;
#X connect 14 0 18 0;
#X connect 15 0 1 0;
#X connect 15 0 5 0;
#X connect 16 0 35 0;
#X connect 16 1 19 0;
#X connect 17 0 8 0;
#X connect 18 0 35 0;
#X connect 19 0 8 0;
#X connect 20 0 13 1;
#X connect 21 0 24 0;
#X connect 21 1 23 0;
#X connect 22 0 11 0;
#X connect 23 0 20 0;
#X connect 24 0 20 0;
#X connect 25 0 9 0;
#X connect 31 0 7 0;
#X connect 32 0 1 0;
#X connect 33 0 10 0;
#X connect 33 0 21 0;
#X connect 34 0 22 1;
#X connect 35 0 12 0;
#X connect 36 0 3 0;
#X connect 37 0 3 0;
#X connect 38 0 2 0;
#X connect 39 0 15 0;
#X restore 638 61 pd looper_seven;
#N canvas 641 51 462 528 looper_eight 0;
#X obj 38 -21 inlet~;
#X obj 40 104 writesf~ 1;
#X msg 349 42 stop;
#X obj 88 18 line~;
#X obj 39 54 *~;
#X obj 88 -47 bng 15 250 50 0 empty empty empty 17 7 0 10 -262144 -1
-1;
#X obj 123 -47 bng 15 250 50 0 empty empty empty 17 7 0 10 -262144
-1 -1;
#X obj 283 -22 sel 1 0;
#X msg 228 234 start;
#X msg 278 234 stop;
#X obj 228 182 sel 1 0;
#X obj 39 472 outlet~;
#X obj 40 263 readsf~ 1;
#X obj 39 422 *~;
#X obj 40 183 bng 15 250 50 0 empty empty empty 17 7 0 10 -262144 -1
-1;
#X msg 283 42 start;
#X obj 102 263 t b b;
#X obj 228 208 delay 1;
#X obj 40 204 delay 50;
#X obj 228 255 delay 1;
#X obj 227 406 line~;
#X obj 227 310 sel 1 0;
#X obj 39 446 *~;
#X msg 262 367 0 50;
#X msg 227 367 1 50;
#X obj 278 208 delay 50;
#X text 174 428 Prevent click when stopping audio;
#X text 306 133 Fader Value;
#X text 345 -7 Start Stop;
#X text 14 -41 Audio IN;
#X text 38 490 Audio OUT;
#X msg 126 18 open ./samples/loop8.wav;
#X msg 40 234 open ./samples/loop8.wav;
#X obj 283 -47 r loop_r_32;
#X obj 228 157 r loop_t_32;
#X obj 307 157 r loop_f_8;
#X msg 88 -21 1 12;
#X msg 123 -21 0 12;
#X obj 283 18 delay 12;
#X obj 349 18 delay 12;
#X connect 0 0 4 0;
#X connect 2 0 1 0;
#X connect 2 0 14 0;
#X connect 3 0 4 1;
#X connect 4 0 1 0;
#X connect 5 0 36 0;
#X connect 6 0 37 0;
#X connect 7 0 31 0;
#X connect 7 0 38 0;
#X connect 7 1 6 0;
#X connect 7 1 39 0;
#X connect 8 0 12 0;
#X connect 9 0 12 0;
#X connect 10 0 32 0;
#X connect 10 0 17 0;
#X connect 10 1 25 0;
#X connect 12 0 13 0;
#X connect 12 1 16 0;
#X connect 13 0 22 0;
#X connect 14 0 18 0;
#X connect 15 0 1 0;
#X connect 15 0 5 0;
#X connect 16 0 32 0;
#X connect 16 1 19 0;
#X connect 17 0 8 0;
#X connect 18 0 32 0;
#X connect 19 0 8 0;
#X connect 20 0 13 1;
#X connect 21 0 24 0;
#X connect 21 1 23 0;
#X connect 22 0 11 0;
#X connect 23 0 20 0;
#X connect 24 0 20 0;
#X connect 25 0 9 0;
#X connect 31 0 1 0;
#X connect 32 0 12 0;
#X connect 33 0 7 0;
#X connect 34 0 10 0;
#X connect 34 0 21 0;
#X connect 35 0 22 1;
#X connect 36 0 3 0;
#X connect 37 0 3 0;
#X connect 38 0 15 0;
#X connect 39 0 2 0;
#X restore 746 60 pd looper_eight;
#N canvas 635 122 462 578 looper_nine 0;
#X obj 38 -21 inlet~;
#X obj 40 104 writesf~ 1;
#X msg 349 42 stop;
#X obj 88 18 line~;
#X obj 39 54 *~;
#X obj 88 -47 bng 15 250 50 0 empty empty empty 17 7 0 10 -262144 -1
-1;
#X obj 123 -47 bng 15 250 50 0 empty empty empty 17 7 0 10 -262144
-1 -1;
#X obj 283 -22 sel 1 0;
#X msg 228 234 start;
#X msg 278 234 stop;
#X obj 228 182 sel 1 0;
#X obj 39 472 outlet~;
#X obj 40 263 readsf~ 1;
#X obj 39 422 *~;
#X obj 40 183 bng 15 250 50 0 empty empty empty 17 7 0 10 -262144 -1
-1;
#X msg 283 42 start;
#X obj 102 263 t b b;
#X obj 228 208 delay 1;
#X obj 40 204 delay 50;
#X obj 228 255 delay 1;
#X obj 227 406 line~;
#X obj 227 310 sel 1 0;
#X obj 39 446 *~;
#X msg 262 367 0 50;
#X msg 227 367 1 50;
#X obj 278 208 delay 50;
#X text 174 428 Prevent click when stopping audio;
#X text 306 133 Fader Value;
#X text 345 -7 Start Stop;
#X text 14 -41 Audio IN;
#X text 38 490 Audio OUT;
#X msg 126 18 open ./samples/loop9.wav;
#X msg 40 234 open ./samples/loop9.wav;
#X obj 283 -47 r loop_r_33;
#X obj 228 157 r loop_t_33;
#X obj 307 157 r loop_f_9;
#X obj 349 18 delay 12;
#X obj 283 18 delay 12;
#X msg 88 -21 1 12;
#X msg 123 -21 0 12;
#X connect 0 0 4 0;
#X connect 2 0 1 0;
#X connect 2 0 14 0;
#X connect 3 0 4 1;
#X connect 4 0 1 0;
#X connect 5 0 38 0;
#X connect 6 0 39 0;
#X connect 7 0 31 0;
#X connect 7 0 37 0;
#X connect 7 1 6 0;
#X connect 7 1 36 0;
#X connect 8 0 12 0;
#X connect 9 0 12 0;
#X connect 10 0 32 0;
#X connect 10 0 17 0;
#X connect 10 1 25 0;
#X connect 12 0 13 0;
#X connect 12 1 16 0;
#X connect 13 0 22 0;
#X connect 14 0 18 0;
#X connect 15 0 1 0;
#X connect 15 0 5 0;
#X connect 16 0 32 0;
#X connect 16 1 19 0;
#X connect 17 0 8 0;
#X connect 18 0 32 0;
#X connect 19 0 8 0;
#X connect 20 0 13 1;
#X connect 21 0 24 0;
#X connect 21 1 23 0;
#X connect 22 0 11 0;
#X connect 23 0 20 0;
#X connect 24 0 20 0;
#X connect 25 0 9 0;
#X connect 31 0 1 0;
#X connect 32 0 12 0;
#X connect 33 0 7 0;
#X connect 34 0 10 0;
#X connect 34 0 21 0;
#X connect 35 0 22 1;
#X connect 36 0 2 0;
#X connect 37 0 15 0;
#X connect 38 0 3 0;
#X connect 39 0 3 0;
#X restore 858 60 pd looper_nine;
#X obj 242 205 z~ 64;
#X obj 242 234 *~;
#X obj 282 205 z~ 64;
#X obj 321 206 z~ 64;
#X obj 361 206 z~ 64;
#X obj 400 206 z~ 64;
#X obj 440 206 z~ 64;
#X obj 479 207 z~ 64;
#X obj 281 233 *~;
#X obj 322 234 *~;
#X obj 361 233 *~;
#X obj 401 234 *~;
#X obj 441 233 *~;
#X obj 480 233 *~;
#X obj 158 233 *~;
#X obj 197 232 *~;
#X obj 198 204 z~ 64;
#X obj 158 204 z~ 64;
#X obj 328 149 limiter~ 50;
#X connect 0 0 28 0;
#X connect 0 0 29 0;
#X connect 1 0 0 0;
#X connect 1 0 3 0;
#X connect 1 0 4 0;
#X connect 1 0 5 0;
#X connect 1 0 6 0;
#X connect 1 0 7 0;
#X connect 1 0 8 0;
#X connect 1 0 9 0;
#X connect 1 0 10 0;
#X connect 3 0 27 0;
#X connect 3 0 29 0;
#X connect 4 0 11 0;
#X connect 4 0 29 0;
#X connect 5 0 13 0;
#X connect 5 0 29 0;
#X connect 6 0 14 0;
#X connect 6 0 29 0;
#X connect 7 0 15 0;
#X connect 7 0 29 0;
#X connect 8 0 16 0;
#X connect 8 0 29 0;
#X connect 9 0 17 0;
#X connect 9 0 29 0;
#X connect 10 0 18 0;
#X connect 10 0 29 0;
#X connect 11 0 12 0;
#X connect 12 0 2 0;
#X connect 13 0 19 0;
#X connect 14 0 20 0;
#X connect 15 0 21 0;
#X connect 16 0 22 0;
#X connect 17 0 23 0;
#X connect 18 0 24 0;
#X connect 19 0 2 0;
#X connect 20 0 2 0;
#X connect 21 0 2 0;
#X connect 22 0 2 0;
#X connect 23 0 2 0;
#X connect 24 0 2 0;
#X connect 25 0 2 0;
#X connect 26 0 2 0;
#X connect 27 0 26 0;
#X connect 28 0 25 0;
#X connect 29 0 12 1;
#X connect 29 0 19 1;
#X connect 29 0 20 1;
#X connect 29 0 21 1;
#X connect 29 0 22 1;
#X connect 29 0 23 1;
#X connect 29 0 24 1;
#X connect 29 0 26 1;
#X connect 29 0 25 1;
#X restore 143 -213 pd loopers;
#X obj 78 -248 adc~ 1;
#N canvas 356 200 424 126 oscillators 0;
#X obj 29 -177 outlet~;
#N canvas 896 190 325 264 oscillator_one 0;
#X obj 59 23 outlet~;
#X obj 59 -34 *~;
#X obj 73 -73 line~;
#X obj 23 -103 osc~ 0;
#X obj 23 -177 r osc_1_amp;
#X obj 102 -176 r osc_1_toggle;
#X msg 73 -103 \$1 100;
#X obj 60 0 *~;
#X obj 124 -35 line~;
#X msg 124 -74 0 100;
#X msg 180 -74 1 100;
#X text 20 -193 OSC ONE;
#X obj 23 -156 r osc_1_freq;
#X obj 124 -102 sel 0 1;
#X connect 1 0 7 0;
#X connect 2 0 1 1;
#X connect 3 0 1 0;
#X connect 4 0 6 0;
#X connect 5 0 13 0;
#X connect 6 0 2 0;
#X connect 7 0 0 0;
#X connect 8 0 7 1;
#X connect 9 0 8 0;
#X connect 10 0 8 0;
#X connect 12 0 3 0;
#X connect 13 0 9 0;
#X connect 13 1 10 0;
#X restore 30 -209 pd oscillator_one;
#N canvas 533 338 271 320 oscillator_two 0;
#X obj 52 -2197 outlet~;
#X obj 52 -2254 *~;
#X obj 66 -2293 line~;
#X obj 16 -2323 osc~ 0;
#X msg 66 -2323 \$1 100;
#X obj 53 -2220 *~;
#X obj 117 -2255 line~;
#X msg 117 -2294 0 100;
#X msg 173 -2294 1 100;
#X obj 117 -2322 sel 0 1;
#X text 13 -2413 OSC TWO;
#X obj 16 -2397 r osc_2_amp;
#X obj 16 -2376 r osc_2_freq;
#X obj 117 -2396 r osc_2_toggle;
#X connect 1 0 5 0;
#X connect 2 0 1 1;
#X connect 3 0 1 0;
#X connect 4 0 2 0;
#X connect 5 0 0 0;
#X connect 6 0 5 1;
#X connect 7 0 6 0;
#X connect 8 0 6 0;
#X connect 9 0 7 0;
#X connect 9 1 8 0;
#X connect 11 0 4 0;
#X connect 12 0 3 0;
#X connect 13 0 9 0;
#X restore 162 -209 pd oscillator_two;
#X obj 163 -177 outlet~;
#X obj 278 -177 outlet~;
#N canvas 416 141 370 386 oscillator_three 0;
#X obj -1 153 outlet~;
#X obj -1 86 *~;
#X obj 13 47 line~;
#X msg 13 17 \$1 100;
#X obj 0 130 *~;
#X obj 119 -15 line~;
#X msg 119 -54 0 100;
#X msg 175 -54 1 100;
#X obj 119 -89 sel 0 1;
#X obj -87 12 osc~;
#X obj -87 -17 +~;
#X obj 11 -114 osc~;
#X obj 12 -63 *~;
#X obj 11 -142 r osc_3_freq;
#X obj 119 -142 r osc_3_toggle;
#X obj 13 -8 r osc_3_amp;
#X text -90 -193 OSC THREE;
#X obj -87 -142 r osc_3_carrier;
#X obj 27 -89 r osc_3_index;
#X connect 1 0 4 0;
#X connect 2 0 1 1;
#X connect 3 0 2 0;
#X connect 4 0 0 0;
#X connect 5 0 4 1;
#X connect 6 0 5 0;
#X connect 7 0 5 0;
#X connect 8 0 6 0;
#X connect 8 1 7 0;
#X connect 9 0 1 0;
#X connect 10 0 9 0;
#X connect 11 0 12 0;
#X connect 12 0 10 1;
#X connect 13 0 11 0;
#X connect 14 0 8 0;
#X connect 15 0 3 0;
#X connect 17 0 10 0;
#X connect 18 0 12 1;
#X restore 279 -209 pd oscillator_three;
#X text 29 -230 SIMPLE;
#X text 276 -233 COMPLEX;
#X connect 1 0 0 0;
#X connect 2 0 3 0;
#X connect 5 0 4 0;
#X restore 212 -213 pd oscillators;
#X obj 219 23 env~ 800;
#N canvas 781 248 426 465 mixer 0;
#X obj 115 -124 inlet~;
#X obj 69 220 outlet~;
#X obj 120 220 outlet~;
#X obj 73 -125 inlet~;
#X obj 266 -124 inlet~;
#X obj 162 -124 inlet~;
#X text 68 234 LEFT;
#X text 119 235 RIGHT;
#X obj 264 220 outlet~;
#X text 262 235 LEVELS;
#X obj 11 -150 line~;
#X msg 11 -175 \$1 20;
#X obj 11 -201 r dsp_masterout;
#X obj 72 86 *~;
#X obj 319 -85 line~;
#X obj 319 -149 sel 1 0;
#X obj 319 -174 r loop_mute;
#X obj 265 53 *~;
#X obj 161 49 *~;
#X obj 115 49 *~;
#X obj 264 85 *~;
#X msg 319 -124 0 50;
#X msg 360 -124 1 50;
#X text 73 -142 Loops;
#X text 111 -141 OSC 1;
#X text 160 -141 OSC 2;
#X text 264 -141 Direct;
#X obj 160 149 z~ 64;
#X obj 160 178 *~;
#X obj 71 178 *~;
#X obj 115 177 *~;
#X obj 116 149 z~ 64;
#X obj 71 149 z~ 64;
#X obj 264 149 z~ 64;
#X obj 264 178 *~;
#X obj 304 148 limiter~ 50;
#X obj 128 108 limiter~ 50;
#X obj 214 -124 inlet~;
#X obj 214 49 *~;
#X obj 212 177 *~;
#X obj 213 149 z~ 64;
#X text 210 -141 OSC 3;
#X connect 0 0 19 0;
#X connect 3 0 13 0;
#X connect 4 0 17 0;
#X connect 5 0 18 0;
#X connect 10 0 13 1;
#X connect 10 0 19 1;
#X connect 10 0 18 1;
#X connect 10 0 20 1;
#X connect 10 0 38 1;
#X connect 11 0 10 0;
#X connect 12 0 11 0;
#X connect 13 0 32 0;
#X connect 13 0 36 0;
#X connect 14 0 17 1;
#X connect 15 0 21 0;
#X connect 15 1 22 0;
#X connect 16 0 15 0;
#X connect 17 0 20 0;
#X connect 18 0 27 0;
#X connect 18 0 36 0;
#X connect 19 0 31 0;
#X connect 19 0 36 0;
#X connect 20 0 33 0;
#X connect 20 0 35 0;
#X connect 21 0 14 0;
#X connect 22 0 14 0;
#X connect 27 0 28 0;
#X connect 28 0 1 0;
#X connect 29 0 1 0;
#X connect 30 0 1 0;
#X connect 31 0 30 0;
#X connect 32 0 29 0;
#X connect 33 0 34 0;
#X connect 34 0 8 0;
#X connect 35 0 34 1;
#X connect 36 0 28 1;
#X connect 36 0 30 1;
#X connect 36 0 29 1;
#X connect 36 0 39 1;
#X connect 37 0 38 0;
#X connect 38 0 36 0;
#X connect 38 0 40 0;
#X connect 39 0 1 0;
#X connect 40 0 39 0;
#X restore 144 22 pd mixer;
#X obj 78 75 vu 15 120 empty empty -1 -8 0 8 -66577 -1 1 0;
#X obj 144 56 dac~ 1 2;
#X connect 0 0 18 0;
#X connect 1 0 2 0;
#X connect 3 0 0 0;
#X connect 4 0 5 0;
#X connect 4 0 11 0;
#X connect 12 0 4 0;
#X connect 13 0 17 0;
#X connect 14 0 3 0;
#X connect 14 0 13 0;
#X connect 14 0 17 4;
#X connect 15 0 17 1;
#X connect 15 1 17 2;
#X connect 15 2 17 3;
#X connect 16 0 1 0;
#X connect 17 0 19 0;
#X connect 17 2 16 0;
#X connect 17 2 19 1;
#X coords 0 0 1 1 85 60 0;
