#N canvas 1293 199 493 463 10;
#X declare -lib mrpeach;
#X obj 77 -43 - 100;
#X obj 352 -30 - 100;
#X obj 353 -1 vu 15 120 empty empty -1 -8 0 8 -66577 -1 1 0;
#X obj 77 -68 env~ 800;
#X obj -68 -250 tgl 15 0 empty empty empty 17 7 0 10 -262144 -1 -1
0 1;
#X msg -68 -226 \; pd dsp \$1;
#X text -72 -291 Turn DSP On / Off;
#N canvas 531 173 823 297 OSC_ENG 0;
#X obj -463 -200 sendOSC;
#X obj -470 -420 import mrpeach;
#X text -465 -361 E.G. send /1/fader1 1;
#X text 77 -363 Receive OSC Data;
#X text -470 -403 -------------------------;
#X obj -463 -381 loadbang;
#N canvas 259 133 565 143 loop_page 0;
#X obj 15 -75 inlet;
#X obj 15 -21 OSCroute /looptoggle;
#X obj 283 -21 OSCroute /loopfader;
#N canvas 23 232 875 308 loops_subpatch 0;
#X obj 2 6 inlet;
#X obj 2 47 OSCroute /1;
#X obj 246 47 OSCroute /2;
#X obj 487 52 OSCroute /3;
#X obj 2 89 OSCroute /1;
#X obj 83 89 OSCroute /2;
#X obj 165 89 OSCroute /3;
#X obj 246 91 OSCroute /1;
#X obj 327 91 OSCroute /2;
#X obj 409 91 OSCroute /3;
#X obj 487 91 OSCroute /1;
#X obj 568 91 OSCroute /2;
#X obj 650 91 OSCroute /3;
#X obj 2 122 s loop_t_11;
#X obj 83 123 s loop_t_12;
#X obj 165 124 s loop_t_13;
#X obj 246 123 s loop_t_21;
#X obj 327 122 s loop_t_22;
#X obj 409 123 s loop_t_23;
#X obj 568 121 s loop_t_32;
#X obj 650 122 s loop_t_33;
#X obj 487 122 s loop_t_31;
#X connect 0 0 1 0;
#X connect 0 0 2 0;
#X connect 0 0 3 0;
#X connect 1 0 4 0;
#X connect 1 0 5 0;
#X connect 1 0 6 0;
#X connect 2 0 7 0;
#X connect 2 0 8 0;
#X connect 2 0 9 0;
#X connect 3 0 10 0;
#X connect 3 0 11 0;
#X connect 3 0 12 0;
#X connect 4 0 13 0;
#X connect 5 0 14 0;
#X connect 6 0 15 0;
#X connect 7 0 16 0;
#X connect 8 0 17 0;
#X connect 9 0 18 0;
#X connect 10 0 21 0;
#X connect 11 0 19 0;
#X connect 12 0 20 0;
#X restore 15 19 pd loops_subpatch;
#X obj 161 -21 OSCroute /record;
#N canvas 444 66 754 169 loops_subpatch 0;
#X obj 2 6 inlet;
#X obj 2 47 OSCroute /1;
#X obj 246 47 OSCroute /2;
#X obj 487 52 OSCroute /3;
#X obj 2 89 OSCroute /1;
#X obj 83 89 OSCroute /2;
#X obj 165 89 OSCroute /3;
#X obj 246 91 OSCroute /1;
#X obj 327 91 OSCroute /2;
#X obj 409 91 OSCroute /3;
#X obj 487 91 OSCroute /1;
#X obj 568 91 OSCroute /2;
#X obj 650 91 OSCroute /3;
#X obj 2 122 s loop_r_11;
#X obj 83 123 s loop_r_12;
#X obj 165 124 s loop_r_13;
#X obj 246 123 s loop_r_21;
#X obj 327 122 s loop_r_22;
#X obj 409 123 s loop_r_23;
#X obj 568 121 s loop_r_32;
#X obj 650 122 s loop_r_33;
#X obj 487 122 s loop_r_31;
#X connect 0 0 1 0;
#X connect 0 0 2 0;
#X connect 0 0 3 0;
#X connect 1 0 4 0;
#X connect 1 0 5 0;
#X connect 1 0 6 0;
#X connect 2 0 7 0;
#X connect 2 0 8 0;
#X connect 2 0 9 0;
#X connect 3 0 10 0;
#X connect 3 0 11 0;
#X connect 3 0 12 0;
#X connect 4 0 13 0;
#X connect 5 0 14 0;
#X connect 6 0 15 0;
#X connect 7 0 16 0;
#X connect 8 0 17 0;
#X connect 9 0 18 0;
#X connect 10 0 21 0;
#X connect 11 0 19 0;
#X connect 12 0 20 0;
#X restore 161 19 pd loops_subpatch;
#N canvas 444 66 391 250 loops_subpatch 0;
#X obj 16 12 inlet;
#X obj 16 62 OSCroute /1;
#X obj 103 62 OSCroute /2;
#X obj 181 61 OSCroute /3;
#X obj 34 84 OSCroute /4;
#X obj 121 84 OSCroute /5;
#X obj 199 83 OSCroute /6;
#X obj 53 106 OSCroute /7;
#X obj 140 106 OSCroute /8;
#X obj 219 108 OSCroute /9;
#X obj 62 152 s loop_f_1;
#X obj 144 151 s loop_f_2;
#X obj 221 152 s loop_f_3;
#X obj 85 175 s loop_f_4;
#X obj 172 176 s loop_f_5;
#X obj 249 175 s loop_f_6;
#X obj 116 204 s loop_f_7;
#X obj 282 206 s loop_f_9;
#X obj 201 205 s loop_f_8;
#X connect 0 0 1 0;
#X connect 0 0 2 0;
#X connect 0 0 3 0;
#X connect 0 0 4 0;
#X connect 0 0 7 0;
#X connect 0 0 5 0;
#X connect 0 0 8 0;
#X connect 0 0 6 0;
#X connect 0 0 9 0;
#X connect 1 0 10 0;
#X connect 2 0 11 0;
#X connect 3 0 12 0;
#X connect 4 0 13 0;
#X connect 5 0 14 0;
#X connect 6 0 15 0;
#X connect 7 0 16 0;
#X connect 8 0 18 0;
#X connect 9 0 17 0;
#X restore 283 19 pd loops_subpatch;
#X obj 415 19 s loop_mute;
#X obj 415 -21 OSCroute /loop_mute;
#X connect 0 0 1 0;
#X connect 0 0 2 0;
#X connect 0 0 4 0;
#X connect 0 0 8 0;
#X connect 1 0 3 0;
#X connect 2 0 6 0;
#X connect 4 0 5 0;
#X connect 8 0 7 0;
#X restore -112 -276 pd loop_page;
#N canvas 612 196 949 434 sound_page 0;
#X obj 15 9 inlet;
#X obj 120 108 s osc_1_amp;
#X obj 206 108 s osc_1_toggle;
#X obj 508 110 s osc_2_amp;
#X obj 694 109 s osc_2_toggle;
#X obj 316 108 s osc_1_freq;
#X obj 598 108 s osc_2_freq;
#X obj 120 52 OSCroute /osc1;
#X obj 120 83 OSCroute /amp;
#X obj 206 83 OSCroute /toggle;
#X obj 316 83 OSCroute /freq;
#X obj 508 83 OSCroute /amp;
#X obj 694 82 OSCroute /toggle;
#X obj 598 83 OSCroute /freq;
#X obj 508 52 OSCroute /osc2;
#X obj 15 52 OSCroute /osc;
#X obj 15 108 s osc_pan;
#X obj 120 176 OSCroute /amp;
#X obj 120 294 OSCroute /toggle;
#X obj 336 176 OSCroute /freq;
#X obj 120 145 OSCroute /osc3;
#X obj 120 201 s osc_3_amp;
#X obj 336 201 s osc_3_freq;
#X obj 432 176 OSCroute /index;
#X obj 432 201 s osc_3_index;
#X obj 534 176 OSCroute /carrier;
#X obj 534 201 s osc_3_carrier;
#X obj 798 82 OSCroute /pad;
#X obj 798 109 s osc_2_pad;
#X obj 409 82 OSCroute /pad;
#X obj 409 108 s osc_1_pad;
#X obj 121 321 OSCroute /1;
#X obj 226 327 OSCroute /2;
#X obj 119 373 OSCroute /3;
#X obj 224 372 OSCroute /4;
#X obj 226 350 s osc_3_toggle_2;
#X obj 224 394 s osc_3_toggle_4;
#X obj 121 343 s osc_3_toggle_1;
#X obj 120 394 s osc_3_toggle_3;
#X obj 207 178 OSCroute /multiball;
#X obj 207 210 unpack f f f f;
#X obj 207 240 s 3rd_amp;
#X obj 343 240 s 5th_amp;
#X obj 413 240 s oct_amp;
#X obj 277 240 s 4th_amp;
#X connect 0 0 7 0;
#X connect 0 0 14 0;
#X connect 0 0 15 0;
#X connect 0 0 20 0;
#X connect 7 0 8 0;
#X connect 7 0 9 0;
#X connect 7 0 10 0;
#X connect 7 0 29 0;
#X connect 8 0 1 0;
#X connect 9 0 2 0;
#X connect 10 0 5 0;
#X connect 11 0 3 0;
#X connect 12 0 4 0;
#X connect 13 0 6 0;
#X connect 14 0 11 0;
#X connect 14 0 12 0;
#X connect 14 0 13 0;
#X connect 14 0 27 0;
#X connect 15 0 16 0;
#X connect 17 0 21 0;
#X connect 18 0 31 0;
#X connect 18 0 32 0;
#X connect 18 0 33 0;
#X connect 18 0 34 0;
#X connect 19 0 22 0;
#X connect 20 0 17 0;
#X connect 20 0 18 0;
#X connect 20 0 19 0;
#X connect 20 0 23 0;
#X connect 20 0 25 0;
#X connect 20 0 39 0;
#X connect 23 0 24 0;
#X connect 25 0 26 0;
#X connect 27 0 28 0;
#X connect 29 0 30 0;
#X connect 31 0 37 0;
#X connect 32 0 35 0;
#X connect 33 0 38 0;
#X connect 34 0 36 0;
#X connect 39 0 40 0;
#X connect 40 0 41 0;
#X connect 40 1 44 0;
#X connect 40 2 42 0;
#X connect 40 3 43 0;
#X restore -21 -275 pd sound_page;
#N canvas 73 435 383 133 dsp_page 0;
#X obj 19 -25 inlet;
#X obj 19 46 s dsp_onoff;
#X obj 185 46 s dsp_masterout;
#X obj 19 19 OSCroute /onoff;
#X obj 185 19 OSCroute /masterout;
#X connect 0 0 3 0;
#X connect 0 0 4 0;
#X connect 3 0 1 0;
#X connect 4 0 2 0;
#X restore 239 -276 pd dsp_page;
#X obj -289 -345 r main_dsp_onoff;
#X obj -112 -298 OSCroute /1;
#X obj -21 -298 OSCroute /2;
#N canvas 404 35 201 243 cpumeter 0;
#X obj -957 53 cputime;
#X obj -957 -56 loadbang;
#X msg -957 -28 1;
#X obj -957 25 t b b;
#X obj -957 113 * 0.1;
#X obj -957 82 int;
#X obj -957 170 s cpu;
#X obj -957 -3 metro 1000;
#X msg -957 141 send /4/cpu_lab \$1;
#X connect 0 0 5 0;
#X connect 1 0 2 0;
#X connect 2 0 7 0;
#X connect 3 0 0 0;
#X connect 3 1 0 1;
#X connect 4 0 8 0;
#X connect 5 0 4 0;
#X connect 7 0 3 0;
#X connect 8 0 6 0;
#X restore -386 -383 pd cpumeter;
#X obj -448 -319 r cpu;
#X obj 77 -344 dumpOSC 8001;
#X msg -463 -346 connect 192.168.1.26 8000;
#N canvas 390 241 209 179 current_time 0;
#X floatatom 18 92 5 0 0 0 - - -;
#X floatatom 55 92 5 0 0 0 - - -;
#X floatatom 93 93 5 0 0 0 - - -;
#X obj 18 39 metro 1000;
#X obj 18 11 loadbang;
#X obj 18 178 s time;
#X obj 18 130 pack \$1 \$2 \$3;
#X obj 18 65 time GMT;
#X msg 18 153 send /4/time \$1:\$2:\$3;
#X connect 0 0 6 0;
#X connect 1 0 6 1;
#X connect 2 0 6 2;
#X connect 3 0 7 0;
#X connect 4 0 3 0;
#X connect 6 0 8 0;
#X connect 7 0 0 0;
#X connect 7 1 1 0;
#X connect 7 2 2 0;
#X connect 8 0 5 0;
#X restore -309 -383 pd current_time;
#X obj -168 -343 r time;
#X msg -289 -316 send /5/onoff \$1;
#X obj 239 -298 OSCroute /5;
#X obj 163 -298 OSCroute /4;
#X obj 77 -298 OSCroute /3;
#N canvas 472 337 844 300 waveshape 0;
#X obj 12 11 inlet;
#X obj 12 36 OSCroute /osc4;
#X obj 513 110 OSCroute /waveshape;
#X obj 12 110 OSCroute /amp;
#X obj 98 110 OSCroute /toggle;
#X obj 208 110 OSCroute /freq;
#X obj 12 135 s osc_4_amp;
#X obj 98 135 s osc_4_toggle;
#X obj 208 135 s osc_4_freq;
#X obj 301 110 OSCroute /index;
#X obj 402 110 OSCroute /carrier;
#X obj 301 135 s osc_4_index;
#X obj 402 135 s osc_4_carrier;
#N canvas 699 320 541 317 send_waveshapes 0;
#X obj -64 9 inlet;
#X obj -64 93 s wave_amp_1;
#X obj 26 93 s wave_amp_2;
#X obj 120 93 s wave_amp_3;
#X obj 214 93 s wave_amp_4;
#X obj 297 93 s wave_amp_5;
#X obj -64 144 s wave_amp_6;
#X obj 26 144 s wave_amp_7;
#X obj 120 144 s wave_amp_8;
#X obj 213 144 s wave_amp_9;
#X obj 296 144 s wave_amp_10;
#X obj -64 195 s wave_amp_11;
#X obj 28 195 s wave_amp_12;
#X obj 118 195 s wave_amp_13;
#X obj 213 195 s wave_amp_14;
#X obj 308 195 s wave_amp_15;
#X obj -63 260 s wave_amp_16;
#X obj 26 260 s wave_amp_17;
#X obj 116 260 s wave_amp_18;
#X obj 211 260 s wave_amp_19;
#X obj 306 260 s wave_amp_20;
#X obj -64 69 OSCroute /1;
#X obj 26 69 OSCroute /2;
#X obj 120 69 OSCroute /3;
#X obj 214 69 OSCroute /4;
#X obj 297 69 OSCroute /5;
#X obj -64 121 OSCroute /6;
#X obj 26 121 OSCroute /7;
#X obj 120 121 OSCroute /8;
#X obj 213 121 OSCroute /9;
#X obj 296 121 OSCroute /10;
#X obj -64 168 OSCroute /11;
#X obj 28 168 OSCroute /12;
#X obj 118 168 OSCroute /13;
#X obj 213 168 OSCroute /14;
#X obj 308 168 OSCroute /15;
#X obj 306 232 OSCroute /20;
#X obj 211 232 OSCroute /19;
#X obj 116 232 OSCroute /18;
#X obj 26 232 OSCroute /17;
#X obj -63 232 OSCroute /16;
#X connect 0 0 21 0;
#X connect 0 0 22 0;
#X connect 0 0 23 0;
#X connect 0 0 24 0;
#X connect 0 0 25 0;
#X connect 0 0 26 0;
#X connect 0 0 27 0;
#X connect 0 0 28 0;
#X connect 0 0 29 0;
#X connect 0 0 30 0;
#X connect 0 0 31 0;
#X connect 0 0 40 0;
#X connect 0 0 32 0;
#X connect 0 0 39 0;
#X connect 0 0 33 0;
#X connect 0 0 38 0;
#X connect 0 0 34 0;
#X connect 0 0 35 0;
#X connect 0 0 36 0;
#X connect 0 0 37 0;
#X connect 21 0 1 0;
#X connect 22 0 2 0;
#X connect 23 0 3 0;
#X connect 24 0 4 0;
#X connect 25 0 5 0;
#X connect 26 0 6 0;
#X connect 27 0 7 0;
#X connect 28 0 8 0;
#X connect 29 0 9 0;
#X connect 30 0 10 0;
#X connect 31 0 11 0;
#X connect 32 0 12 0;
#X connect 33 0 13 0;
#X connect 34 0 14 0;
#X connect 35 0 15 0;
#X connect 36 0 20 0;
#X connect 37 0 19 0;
#X connect 38 0 18 0;
#X connect 39 0 17 0;
#X connect 40 0 16 0;
#X restore 513 137 pd send_waveshapes;
#X obj 11 161 OSCroute /play_back_rate;
#X obj 11 186 s wave_play_back_rate;
#X connect 0 0 1 0;
#X connect 1 0 2 0;
#X connect 1 0 3 0;
#X connect 1 0 4 0;
#X connect 1 0 5 0;
#X connect 1 0 9 0;
#X connect 1 0 10 0;
#X connect 1 0 14 0;
#X connect 2 0 13 0;
#X connect 3 0 6 0;
#X connect 4 0 7 0;
#X connect 5 0 8 0;
#X connect 9 0 11 0;
#X connect 10 0 12 0;
#X connect 14 0 15 0;
#X restore 77 -274 pd waveshape;
#X connect 5 0 15 0;
#X connect 9 0 18 0;
#X connect 10 0 6 0;
#X connect 11 0 7 0;
#X connect 13 0 0 0;
#X connect 14 0 10 0;
#X connect 14 0 11 0;
#X connect 14 0 19 0;
#X connect 14 0 20 0;
#X connect 14 0 21 0;
#X connect 15 0 0 0;
#X connect 17 0 0 0;
#X connect 18 0 0 0;
#X connect 19 0 8 0;
#X connect 21 0 22 0;
#X restore -70 -319 pd OSC_ENG;
#X text 348 -74 OUTPUT LV;
#X text 75 -87 INPUT LV;
#X text -73 -306 ----------------------;
#X obj -47 -250 s main_dsp_onoff;
#X obj -68 -273 r dsp_onoff;
#N canvas 76 129 990 340 loopers 0;
#N canvas 169 343 480 575 looper_one 0;
#X obj 38 -21 inlet~;
#X obj 40 104 writesf~ 1;
#X msg 349 42 stop;
#X obj 88 18 line~;
#X obj 39 54 *~;
#X obj 88 -47 bng 15 250 50 0 empty empty empty 17 7 0 10 -262144 -1
-1;
#X obj 123 -47 bng 15 250 50 0 empty empty empty 17 7 0 10 -262144
-1 -1;
#X obj 307 157 r loop_f_1;
#X obj 283 -22 sel 1 0;
#X obj 283 -47 r loop_r_11;
#X msg 228 234 start;
#X msg 278 234 stop;
#X obj 228 182 sel 1 0;
#X obj 39 472 outlet~;
#X obj 40 263 readsf~ 1;
#X obj 39 422 *~;
#X obj 228 157 r loop_t_11;
#X obj 40 183 bng 15 250 50 0 empty empty empty 17 7 0 10 -262144 -1
-1;
#X msg 283 42 start;
#X obj 102 263 t b b;
#X obj 228 208 delay 1;
#X obj 40 204 delay 50;
#X obj 228 255 delay 1;
#X obj 227 406 line~;
#X obj 227 310 sel 1 0;
#X obj 39 446 *~;
#X msg 262 367 0 50;
#X msg 227 367 1 50;
#X obj 278 208 delay 50;
#X text 174 428 Prevent click when stopping audio;
#X text 306 133 Fader Value;
#X text 345 -7 Start Stop;
#X text 14 -41 Audio IN;
#X text 38 490 Audio OUT;
#X msg 40 234 open ./samples/loop1.wav;
#X msg 126 18 open ./samples/loop1.wav;
#X msg 123 -21 0 12;
#X obj 349 18 delay 12;
#X msg 88 -21 1 12;
#X obj 283 18 delay 12;
#X connect 0 0 4 0;
#X connect 2 0 1 0;
#X connect 2 0 17 0;
#X connect 3 0 4 1;
#X connect 4 0 1 0;
#X connect 5 0 38 0;
#X connect 6 0 36 0;
#X connect 7 0 25 1;
#X connect 8 0 35 0;
#X connect 8 0 39 0;
#X connect 8 1 6 0;
#X connect 8 1 37 0;
#X connect 9 0 8 0;
#X connect 10 0 14 0;
#X connect 11 0 14 0;
#X connect 12 0 34 0;
#X connect 12 0 20 0;
#X connect 12 1 28 0;
#X connect 14 0 15 0;
#X connect 14 1 19 0;
#X connect 15 0 25 0;
#X connect 16 0 12 0;
#X connect 16 0 24 0;
#X connect 17 0 21 0;
#X connect 18 0 1 0;
#X connect 18 0 5 0;
#X connect 19 0 34 0;
#X connect 19 1 22 0;
#X connect 20 0 10 0;
#X connect 21 0 34 0;
#X connect 22 0 10 0;
#X connect 23 0 15 1;
#X connect 24 0 27 0;
#X connect 24 1 26 0;
#X connect 25 0 13 0;
#X connect 26 0 23 0;
#X connect 27 0 23 0;
#X connect 28 0 11 0;
#X connect 34 0 14 0;
#X connect 35 0 1 0;
#X connect 36 0 3 0;
#X connect 37 0 2 0;
#X connect 38 0 3 0;
#X connect 39 0 18 0;
#X restore 36 52 pd looper_one;
#X obj 432 8 inlet~;
#X obj 157 297 outlet~;
#N canvas 96 173 462 578 looper_two 0;
#X obj 38 -21 inlet~;
#X obj 40 104 writesf~ 1;
#X msg 349 42 stop;
#X obj 88 18 line~;
#X obj 39 54 *~;
#X obj 88 -47 bng 15 250 50 0 empty empty empty 17 7 0 10 -262144 -1
-1;
#X obj 123 -47 bng 15 250 50 0 empty empty empty 17 7 0 10 -262144
-1 -1;
#X obj 283 -22 sel 1 0;
#X msg 228 234 start;
#X msg 278 234 stop;
#X obj 228 182 sel 1 0;
#X obj 39 472 outlet~;
#X obj 40 263 readsf~ 1;
#X obj 39 422 *~;
#X obj 40 183 bng 15 250 50 0 empty empty empty 17 7 0 10 -262144 -1
-1;
#X msg 283 42 start;
#X obj 102 263 t b b;
#X obj 228 208 delay 1;
#X obj 40 204 delay 50;
#X obj 228 255 delay 1;
#X obj 227 406 line~;
#X obj 227 310 sel 1 0;
#X obj 39 446 *~;
#X msg 262 367 0 50;
#X msg 227 367 1 50;
#X obj 278 208 delay 50;
#X text 174 428 Prevent click when stopping audio;
#X text 306 133 Fader Value;
#X text 345 -7 Start Stop;
#X text 14 -41 Audio IN;
#X text 38 490 Audio OUT;
#X msg 126 18 open ./samples/loop2.wav;
#X obj 283 -47 r loop_r_12;
#X obj 307 157 r loop_f_2;
#X obj 228 157 r loop_t_12;
#X msg 40 234 open ./samples/loop2.wav;
#X msg 88 -21 1 12;
#X msg 123 -21 0 12;
#X obj 283 18 delay 12;
#X obj 349 18 delay 12;
#X connect 0 0 4 0;
#X connect 2 0 1 0;
#X connect 2 0 14 0;
#X connect 3 0 4 1;
#X connect 4 0 1 0;
#X connect 5 0 36 0;
#X connect 6 0 37 0;
#X connect 7 0 31 0;
#X connect 7 0 38 0;
#X connect 7 1 6 0;
#X connect 7 1 39 0;
#X connect 8 0 12 0;
#X connect 9 0 12 0;
#X connect 10 0 35 0;
#X connect 10 0 17 0;
#X connect 10 1 25 0;
#X connect 12 0 13 0;
#X connect 12 1 16 0;
#X connect 13 0 22 0;
#X connect 14 0 18 0;
#X connect 15 0 1 0;
#X connect 15 0 5 0;
#X connect 16 0 35 0;
#X connect 16 1 19 0;
#X connect 17 0 8 0;
#X connect 18 0 35 0;
#X connect 19 0 8 0;
#X connect 20 0 13 1;
#X connect 21 0 24 0;
#X connect 21 1 23 0;
#X connect 22 0 11 0;
#X connect 23 0 20 0;
#X connect 24 0 20 0;
#X connect 25 0 9 0;
#X connect 31 0 1 0;
#X connect 32 0 7 0;
#X connect 33 0 22 1;
#X connect 34 0 10 0;
#X connect 34 0 21 0;
#X connect 35 0 12 0;
#X connect 36 0 3 0;
#X connect 37 0 3 0;
#X connect 38 0 15 0;
#X connect 39 0 2 0;
#X restore 124 53 pd looper_two;
#N canvas 641 1 462 578 looper_three 0;
#X obj 38 -21 inlet~;
#X obj 40 104 writesf~ 1;
#X msg 349 42 stop;
#X obj 88 18 line~;
#X obj 39 54 *~;
#X obj 88 -47 bng 15 250 50 0 empty empty empty 17 7 0 10 -262144 -1
-1;
#X obj 123 -47 bng 15 250 50 0 empty empty empty 17 7 0 10 -262144
-1 -1;
#X obj 283 -22 sel 1 0;
#X msg 228 234 start;
#X msg 278 234 stop;
#X obj 228 182 sel 1 0;
#X obj 39 472 outlet~;
#X obj 40 263 readsf~ 1;
#X obj 39 422 *~;
#X obj 40 183 bng 15 250 50 0 empty empty empty 17 7 0 10 -262144 -1
-1;
#X msg 283 42 start;
#X obj 102 263 t b b;
#X obj 228 208 delay 1;
#X obj 40 204 delay 50;
#X obj 228 255 delay 1;
#X obj 227 406 line~;
#X obj 227 310 sel 1 0;
#X obj 39 446 *~;
#X msg 262 367 0 50;
#X msg 227 367 1 50;
#X obj 278 208 delay 50;
#X text 174 428 Prevent click when stopping audio;
#X text 306 133 Fader Value;
#X text 345 -7 Start Stop;
#X text 14 -41 Audio IN;
#X text 38 490 Audio OUT;
#X obj 283 -47 r loop_r_13;
#X msg 126 18 open ./samples/loop3.wav;
#X obj 228 157 r loop_t_13;
#X obj 307 157 r loop_f_3;
#X msg 40 234 open ./samples/loop3.wav;
#X msg 88 -21 1 12;
#X msg 123 -21 0 12;
#X obj 283 18 delay 12;
#X obj 349 18 delay 12;
#X connect 0 0 4 0;
#X connect 2 0 1 0;
#X connect 2 0 14 0;
#X connect 3 0 4 1;
#X connect 4 0 1 0;
#X connect 5 0 36 0;
#X connect 6 0 37 0;
#X connect 7 0 32 0;
#X connect 7 0 38 0;
#X connect 7 1 6 0;
#X connect 7 1 39 0;
#X connect 8 0 12 0;
#X connect 9 0 12 0;
#X connect 10 0 35 0;
#X connect 10 0 17 0;
#X connect 10 1 25 0;
#X connect 12 0 13 0;
#X connect 12 1 16 0;
#X connect 13 0 22 0;
#X connect 14 0 18 0;
#X connect 15 0 1 0;
#X connect 15 0 5 0;
#X connect 16 0 35 0;
#X connect 16 1 19 0;
#X connect 17 0 8 0;
#X connect 18 0 35 0;
#X connect 19 0 8 0;
#X connect 20 0 13 1;
#X connect 21 0 24 0;
#X connect 21 1 23 0;
#X connect 22 0 11 0;
#X connect 23 0 20 0;
#X connect 24 0 20 0;
#X connect 25 0 9 0;
#X connect 31 0 7 0;
#X connect 32 0 1 0;
#X connect 33 0 10 0;
#X connect 33 0 21 0;
#X connect 34 0 22 1;
#X connect 35 0 12 0;
#X connect 36 0 3 0;
#X connect 37 0 3 0;
#X connect 38 0 15 0;
#X connect 39 0 2 0;
#X restore 215 55 pd looper_three;
#N canvas 56 207 462 578 looper_four 0;
#X obj 38 -21 inlet~;
#X obj 40 104 writesf~ 1;
#X msg 349 42 stop;
#X obj 88 18 line~;
#X obj 39 54 *~;
#X obj 88 -47 bng 15 250 50 0 empty empty empty 17 7 0 10 -262144 -1
-1;
#X obj 123 -47 bng 15 250 50 0 empty empty empty 17 7 0 10 -262144
-1 -1;
#X obj 283 -22 sel 1 0;
#X msg 228 234 start;
#X msg 278 234 stop;
#X obj 228 182 sel 1 0;
#X obj 39 472 outlet~;
#X obj 40 263 readsf~ 1;
#X obj 39 422 *~;
#X obj 40 183 bng 15 250 50 0 empty empty empty 17 7 0 10 -262144 -1
-1;
#X msg 283 42 start;
#X obj 102 263 t b b;
#X obj 228 208 delay 1;
#X obj 40 204 delay 50;
#X obj 228 255 delay 1;
#X obj 227 406 line~;
#X obj 227 310 sel 1 0;
#X obj 39 446 *~;
#X msg 262 367 0 50;
#X msg 227 367 1 50;
#X obj 278 208 delay 50;
#X text 174 428 Prevent click when stopping audio;
#X text 306 133 Fader Value;
#X text 345 -7 Start Stop;
#X text 14 -41 Audio IN;
#X text 38 490 Audio OUT;
#X obj 283 -47 r loop_r_21;
#X msg 126 18 open ./samples/loop4.wav;
#X obj 307 157 r loop_f_4;
#X obj 228 157 r loop_t_21;
#X msg 40 234 open ./samples/loop4.wav;
#X obj 349 18 delay 12;
#X obj 283 18 delay 12;
#X msg 123 -21 0 12;
#X msg 88 -21 1 12;
#X connect 0 0 4 0;
#X connect 2 0 1 0;
#X connect 2 0 14 0;
#X connect 3 0 4 1;
#X connect 4 0 1 0;
#X connect 5 0 39 0;
#X connect 6 0 38 0;
#X connect 7 0 32 0;
#X connect 7 0 37 0;
#X connect 7 1 6 0;
#X connect 7 1 36 0;
#X connect 8 0 12 0;
#X connect 9 0 12 0;
#X connect 10 0 35 0;
#X connect 10 0 17 0;
#X connect 10 1 25 0;
#X connect 12 0 13 0;
#X connect 12 1 16 0;
#X connect 13 0 22 0;
#X connect 14 0 18 0;
#X connect 15 0 1 0;
#X connect 15 0 5 0;
#X connect 16 0 35 0;
#X connect 16 1 19 0;
#X connect 17 0 8 0;
#X connect 18 0 35 0;
#X connect 19 0 8 0;
#X connect 20 0 13 1;
#X connect 21 0 24 0;
#X connect 21 1 23 0;
#X connect 22 0 11 0;
#X connect 23 0 20 0;
#X connect 24 0 20 0;
#X connect 25 0 9 0;
#X connect 31 0 7 0;
#X connect 32 0 1 0;
#X connect 33 0 22 1;
#X connect 34 0 10 0;
#X connect 34 0 21 0;
#X connect 35 0 12 0;
#X connect 36 0 2 0;
#X connect 37 0 15 0;
#X connect 38 0 3 0;
#X connect 39 0 3 0;
#X restore 327 59 pd looper_four;
#N canvas 641 1 462 578 looper_five 0;
#X obj 38 -21 inlet~;
#X obj 40 104 writesf~ 1;
#X msg 349 42 stop;
#X obj 88 18 line~;
#X obj 39 54 *~;
#X obj 88 -47 bng 15 250 50 0 empty empty empty 17 7 0 10 -262144 -1
-1;
#X obj 123 -47 bng 15 250 50 0 empty empty empty 17 7 0 10 -262144
-1 -1;
#X obj 283 -22 sel 1 0;
#X msg 228 234 start;
#X msg 278 234 stop;
#X obj 228 182 sel 1 0;
#X obj 39 472 outlet~;
#X obj 40 263 readsf~ 1;
#X obj 39 422 *~;
#X obj 40 183 bng 15 250 50 0 empty empty empty 17 7 0 10 -262144 -1
-1;
#X msg 283 42 start;
#X obj 102 263 t b b;
#X obj 228 208 delay 1;
#X obj 40 204 delay 50;
#X obj 228 255 delay 1;
#X obj 227 406 line~;
#X obj 227 310 sel 1 0;
#X obj 39 446 *~;
#X msg 262 367 0 50;
#X msg 227 367 1 50;
#X obj 278 208 delay 50;
#X text 174 428 Prevent click when stopping audio;
#X text 306 133 Fader Value;
#X text 345 -7 Start Stop;
#X text 14 -41 Audio IN;
#X text 38 490 Audio OUT;
#X obj 283 -47 r loop_r_22;
#X msg 126 18 open ./samples/loop5.wav;
#X msg 40 234 open ./samples/loop5.wav;
#X obj 228 157 r loop_t_22;
#X obj 307 157 r loop_f_5;
#X msg 88 -21 1 12;
#X msg 123 -21 0 12;
#X obj 283 18 delay 12;
#X obj 349 18 delay 12;
#X connect 0 0 4 0;
#X connect 2 0 1 0;
#X connect 2 0 14 0;
#X connect 3 0 4 1;
#X connect 4 0 1 0;
#X connect 5 0 36 0;
#X connect 6 0 37 0;
#X connect 7 0 32 0;
#X connect 7 0 38 0;
#X connect 7 1 6 0;
#X connect 7 1 39 0;
#X connect 8 0 12 0;
#X connect 9 0 12 0;
#X connect 10 0 33 0;
#X connect 10 0 17 0;
#X connect 10 1 25 0;
#X connect 12 0 13 0;
#X connect 12 1 16 0;
#X connect 13 0 22 0;
#X connect 14 0 18 0;
#X connect 15 0 1 0;
#X connect 15 0 5 0;
#X connect 16 0 33 0;
#X connect 16 1 19 0;
#X connect 17 0 8 0;
#X connect 18 0 33 0;
#X connect 19 0 8 0;
#X connect 20 0 13 1;
#X connect 21 0 24 0;
#X connect 21 1 23 0;
#X connect 22 0 11 0;
#X connect 23 0 20 0;
#X connect 24 0 20 0;
#X connect 25 0 9 0;
#X connect 31 0 7 0;
#X connect 32 0 1 0;
#X connect 33 0 12 0;
#X connect 34 0 10 0;
#X connect 34 0 21 0;
#X connect 35 0 22 1;
#X connect 36 0 3 0;
#X connect 37 0 3 0;
#X connect 38 0 15 0;
#X connect 39 0 2 0;
#X restore 431 60 pd looper_five;
#N canvas 641 1 462 578 looper_six 0;
#X obj 38 -21 inlet~;
#X obj 40 104 writesf~ 1;
#X msg 349 42 stop;
#X obj 88 18 line~;
#X obj 39 54 *~;
#X obj 88 -47 bng 15 250 50 0 empty empty empty 17 7 0 10 -262144 -1
-1;
#X obj 123 -47 bng 15 250 50 0 empty empty empty 17 7 0 10 -262144
-1 -1;
#X obj 283 -22 sel 1 0;
#X msg 228 234 start;
#X msg 278 234 stop;
#X obj 228 182 sel 1 0;
#X obj 39 472 outlet~;
#X obj 40 263 readsf~ 1;
#X obj 39 422 *~;
#X obj 40 183 bng 15 250 50 0 empty empty empty 17 7 0 10 -262144 -1
-1;
#X msg 283 42 start;
#X obj 102 263 t b b;
#X obj 228 208 delay 1;
#X obj 40 204 delay 50;
#X obj 228 255 delay 1;
#X obj 227 406 line~;
#X obj 227 310 sel 1 0;
#X obj 39 446 *~;
#X msg 262 367 0 50;
#X msg 227 367 1 50;
#X obj 278 208 delay 50;
#X text 174 428 Prevent click when stopping audio;
#X text 306 133 Fader Value;
#X text 345 -7 Start Stop;
#X text 14 -41 Audio IN;
#X text 38 490 Audio OUT;
#X msg 126 18 open ./samples/loop6.wav;
#X msg 40 234 open ./samples/loop6.wav;
#X obj 307 157 r loop_f_6;
#X obj 228 157 r loop_t_23;
#X obj 283 -47 r loop_r_23;
#X obj 283 18 delay 12;
#X obj 349 18 delay 12;
#X msg 123 -21 0 12;
#X msg 88 -21 1 12;
#X connect 0 0 4 0;
#X connect 2 0 1 0;
#X connect 2 0 14 0;
#X connect 3 0 4 1;
#X connect 4 0 1 0;
#X connect 5 0 39 0;
#X connect 6 0 38 0;
#X connect 7 0 31 0;
#X connect 7 0 36 0;
#X connect 7 1 6 0;
#X connect 7 1 37 0;
#X connect 8 0 12 0;
#X connect 9 0 12 0;
#X connect 10 0 32 0;
#X connect 10 0 17 0;
#X connect 10 1 25 0;
#X connect 12 0 13 0;
#X connect 12 1 16 0;
#X connect 13 0 22 0;
#X connect 14 0 18 0;
#X connect 15 0 1 0;
#X connect 15 0 5 0;
#X connect 16 0 32 0;
#X connect 16 1 19 0;
#X connect 17 0 8 0;
#X connect 18 0 32 0;
#X connect 19 0 8 0;
#X connect 20 0 13 1;
#X connect 21 0 24 0;
#X connect 21 1 23 0;
#X connect 22 0 11 0;
#X connect 23 0 20 0;
#X connect 24 0 20 0;
#X connect 25 0 9 0;
#X connect 31 0 1 0;
#X connect 32 0 12 0;
#X connect 33 0 22 1;
#X connect 34 0 10 0;
#X connect 34 0 21 0;
#X connect 35 0 7 0;
#X connect 36 0 15 0;
#X connect 37 0 2 0;
#X connect 38 0 3 0;
#X connect 39 0 3 0;
#X restore 543 61 pd looper_six;
#N canvas 408 169 462 578 looper_seven 0;
#X obj 38 -21 inlet~;
#X obj 40 104 writesf~ 1;
#X msg 349 42 stop;
#X obj 88 18 line~;
#X obj 39 54 *~;
#X obj 88 -47 bng 15 250 50 0 empty empty empty 17 7 0 10 -262144 -1
-1;
#X obj 123 -47 bng 15 250 50 0 empty empty empty 17 7 0 10 -262144
-1 -1;
#X obj 283 -22 sel 1 0;
#X msg 228 234 start;
#X msg 278 234 stop;
#X obj 228 182 sel 1 0;
#X obj 39 472 outlet~;
#X obj 40 263 readsf~ 1;
#X obj 39 422 *~;
#X obj 40 183 bng 15 250 50 0 empty empty empty 17 7 0 10 -262144 -1
-1;
#X msg 283 42 start;
#X obj 102 263 t b b;
#X obj 228 208 delay 1;
#X obj 40 204 delay 50;
#X obj 228 255 delay 1;
#X obj 227 406 line~;
#X obj 227 310 sel 1 0;
#X obj 39 446 *~;
#X msg 262 367 0 50;
#X msg 227 367 1 50;
#X obj 278 208 delay 50;
#X text 174 428 Prevent click when stopping audio;
#X text 306 133 Fader Value;
#X text 345 -7 Start Stop;
#X text 14 -41 Audio IN;
#X text 38 490 Audio OUT;
#X obj 283 -47 r loop_r_31;
#X msg 126 18 open ./samples/loop7.wav;
#X obj 228 157 r loop_t_31;
#X obj 307 157 r loop_f_7;
#X msg 40 235 open ./samples/loop7.wav;
#X msg 88 -21 1 12;
#X msg 123 -21 0 12;
#X obj 349 18 delay 12;
#X obj 283 18 delay 12;
#X connect 0 0 4 0;
#X connect 2 0 1 0;
#X connect 2 0 14 0;
#X connect 3 0 4 1;
#X connect 4 0 1 0;
#X connect 5 0 36 0;
#X connect 6 0 37 0;
#X connect 7 0 32 0;
#X connect 7 0 39 0;
#X connect 7 1 6 0;
#X connect 7 1 38 0;
#X connect 8 0 12 0;
#X connect 9 0 12 0;
#X connect 10 0 35 0;
#X connect 10 0 17 0;
#X connect 10 1 25 0;
#X connect 12 0 13 0;
#X connect 12 1 16 0;
#X connect 13 0 22 0;
#X connect 14 0 18 0;
#X connect 15 0 1 0;
#X connect 15 0 5 0;
#X connect 16 0 35 0;
#X connect 16 1 19 0;
#X connect 17 0 8 0;
#X connect 18 0 35 0;
#X connect 19 0 8 0;
#X connect 20 0 13 1;
#X connect 21 0 24 0;
#X connect 21 1 23 0;
#X connect 22 0 11 0;
#X connect 23 0 20 0;
#X connect 24 0 20 0;
#X connect 25 0 9 0;
#X connect 31 0 7 0;
#X connect 32 0 1 0;
#X connect 33 0 10 0;
#X connect 33 0 21 0;
#X connect 34 0 22 1;
#X connect 35 0 12 0;
#X connect 36 0 3 0;
#X connect 37 0 3 0;
#X connect 38 0 2 0;
#X connect 39 0 15 0;
#X restore 638 61 pd looper_seven;
#N canvas 641 51 462 528 looper_eight 0;
#X obj 38 -21 inlet~;
#X obj 40 104 writesf~ 1;
#X msg 349 42 stop;
#X obj 88 18 line~;
#X obj 39 54 *~;
#X obj 88 -47 bng 15 250 50 0 empty empty empty 17 7 0 10 -262144 -1
-1;
#X obj 123 -47 bng 15 250 50 0 empty empty empty 17 7 0 10 -262144
-1 -1;
#X obj 283 -22 sel 1 0;
#X msg 228 234 start;
#X msg 278 234 stop;
#X obj 228 182 sel 1 0;
#X obj 39 472 outlet~;
#X obj 40 263 readsf~ 1;
#X obj 39 422 *~;
#X obj 40 183 bng 15 250 50 0 empty empty empty 17 7 0 10 -262144 -1
-1;
#X msg 283 42 start;
#X obj 102 263 t b b;
#X obj 228 208 delay 1;
#X obj 40 204 delay 50;
#X obj 228 255 delay 1;
#X obj 227 406 line~;
#X obj 227 310 sel 1 0;
#X obj 39 446 *~;
#X msg 262 367 0 50;
#X msg 227 367 1 50;
#X obj 278 208 delay 50;
#X text 174 428 Prevent click when stopping audio;
#X text 306 133 Fader Value;
#X text 345 -7 Start Stop;
#X text 14 -41 Audio IN;
#X text 38 490 Audio OUT;
#X msg 126 18 open ./samples/loop8.wav;
#X msg 40 234 open ./samples/loop8.wav;
#X obj 283 -47 r loop_r_32;
#X obj 228 157 r loop_t_32;
#X obj 307 157 r loop_f_8;
#X msg 88 -21 1 12;
#X msg 123 -21 0 12;
#X obj 283 18 delay 12;
#X obj 349 18 delay 12;
#X connect 0 0 4 0;
#X connect 2 0 1 0;
#X connect 2 0 14 0;
#X connect 3 0 4 1;
#X connect 4 0 1 0;
#X connect 5 0 36 0;
#X connect 6 0 37 0;
#X connect 7 0 31 0;
#X connect 7 0 38 0;
#X connect 7 1 6 0;
#X connect 7 1 39 0;
#X connect 8 0 12 0;
#X connect 9 0 12 0;
#X connect 10 0 32 0;
#X connect 10 0 17 0;
#X connect 10 1 25 0;
#X connect 12 0 13 0;
#X connect 12 1 16 0;
#X connect 13 0 22 0;
#X connect 14 0 18 0;
#X connect 15 0 1 0;
#X connect 15 0 5 0;
#X connect 16 0 32 0;
#X connect 16 1 19 0;
#X connect 17 0 8 0;
#X connect 18 0 32 0;
#X connect 19 0 8 0;
#X connect 20 0 13 1;
#X connect 21 0 24 0;
#X connect 21 1 23 0;
#X connect 22 0 11 0;
#X connect 23 0 20 0;
#X connect 24 0 20 0;
#X connect 25 0 9 0;
#X connect 31 0 1 0;
#X connect 32 0 12 0;
#X connect 33 0 7 0;
#X connect 34 0 10 0;
#X connect 34 0 21 0;
#X connect 35 0 22 1;
#X connect 36 0 3 0;
#X connect 37 0 3 0;
#X connect 38 0 15 0;
#X connect 39 0 2 0;
#X restore 746 60 pd looper_eight;
#N canvas 635 122 462 578 looper_nine 0;
#X obj 38 -21 inlet~;
#X obj 40 104 writesf~ 1;
#X msg 349 42 stop;
#X obj 88 18 line~;
#X obj 39 54 *~;
#X obj 88 -47 bng 15 250 50 0 empty empty empty 17 7 0 10 -262144 -1
-1;
#X obj 123 -47 bng 15 250 50 0 empty empty empty 17 7 0 10 -262144
-1 -1;
#X obj 283 -22 sel 1 0;
#X msg 228 234 start;
#X msg 278 234 stop;
#X obj 228 182 sel 1 0;
#X obj 39 472 outlet~;
#X obj 40 263 readsf~ 1;
#X obj 39 422 *~;
#X obj 40 183 bng 15 250 50 0 empty empty empty 17 7 0 10 -262144 -1
-1;
#X msg 283 42 start;
#X obj 102 263 t b b;
#X obj 228 208 delay 1;
#X obj 40 204 delay 50;
#X obj 228 255 delay 1;
#X obj 227 406 line~;
#X obj 227 310 sel 1 0;
#X obj 39 446 *~;
#X msg 262 367 0 50;
#X msg 227 367 1 50;
#X obj 278 208 delay 50;
#X text 174 428 Prevent click when stopping audio;
#X text 306 133 Fader Value;
#X text 345 -7 Start Stop;
#X text 14 -41 Audio IN;
#X text 38 490 Audio OUT;
#X msg 126 18 open ./samples/loop9.wav;
#X msg 40 234 open ./samples/loop9.wav;
#X obj 283 -47 r loop_r_33;
#X obj 228 157 r loop_t_33;
#X obj 307 157 r loop_f_9;
#X obj 349 18 delay 12;
#X obj 283 18 delay 12;
#X msg 88 -21 1 12;
#X msg 123 -21 0 12;
#X connect 0 0 4 0;
#X connect 2 0 1 0;
#X connect 2 0 14 0;
#X connect 3 0 4 1;
#X connect 4 0 1 0;
#X connect 5 0 38 0;
#X connect 6 0 39 0;
#X connect 7 0 31 0;
#X connect 7 0 37 0;
#X connect 7 1 6 0;
#X connect 7 1 36 0;
#X connect 8 0 12 0;
#X connect 9 0 12 0;
#X connect 10 0 32 0;
#X connect 10 0 17 0;
#X connect 10 1 25 0;
#X connect 12 0 13 0;
#X connect 12 1 16 0;
#X connect 13 0 22 0;
#X connect 14 0 18 0;
#X connect 15 0 1 0;
#X connect 15 0 5 0;
#X connect 16 0 32 0;
#X connect 16 1 19 0;
#X connect 17 0 8 0;
#X connect 18 0 32 0;
#X connect 19 0 8 0;
#X connect 20 0 13 1;
#X connect 21 0 24 0;
#X connect 21 1 23 0;
#X connect 22 0 11 0;
#X connect 23 0 20 0;
#X connect 24 0 20 0;
#X connect 25 0 9 0;
#X connect 31 0 1 0;
#X connect 32 0 12 0;
#X connect 33 0 7 0;
#X connect 34 0 10 0;
#X connect 34 0 21 0;
#X connect 35 0 22 1;
#X connect 36 0 2 0;
#X connect 37 0 15 0;
#X connect 38 0 3 0;
#X connect 39 0 3 0;
#X restore 858 60 pd looper_nine;
#X obj 242 205 z~ 64;
#X obj 242 234 *~;
#X obj 282 205 z~ 64;
#X obj 321 206 z~ 64;
#X obj 361 206 z~ 64;
#X obj 400 206 z~ 64;
#X obj 440 206 z~ 64;
#X obj 479 207 z~ 64;
#X obj 281 233 *~;
#X obj 322 234 *~;
#X obj 361 233 *~;
#X obj 401 234 *~;
#X obj 441 233 *~;
#X obj 480 233 *~;
#X obj 158 233 *~;
#X obj 197 232 *~;
#X obj 198 204 z~ 64;
#X obj 158 204 z~ 64;
#X obj 328 149 limiter~ 50;
#X connect 0 0 28 0;
#X connect 0 0 29 0;
#X connect 1 0 0 0;
#X connect 1 0 3 0;
#X connect 1 0 4 0;
#X connect 1 0 5 0;
#X connect 1 0 6 0;
#X connect 1 0 7 0;
#X connect 1 0 8 0;
#X connect 1 0 9 0;
#X connect 1 0 10 0;
#X connect 3 0 27 0;
#X connect 3 0 29 0;
#X connect 4 0 11 0;
#X connect 4 0 29 0;
#X connect 5 0 13 0;
#X connect 5 0 29 0;
#X connect 6 0 14 0;
#X connect 6 0 29 0;
#X connect 7 0 15 0;
#X connect 7 0 29 0;
#X connect 8 0 16 0;
#X connect 8 0 29 0;
#X connect 9 0 17 0;
#X connect 9 0 29 0;
#X connect 10 0 18 0;
#X connect 10 0 29 0;
#X connect 11 0 12 0;
#X connect 12 0 2 0;
#X connect 13 0 19 0;
#X connect 14 0 20 0;
#X connect 15 0 21 0;
#X connect 16 0 22 0;
#X connect 17 0 23 0;
#X connect 18 0 24 0;
#X connect 19 0 2 0;
#X connect 20 0 2 0;
#X connect 21 0 2 0;
#X connect 22 0 2 0;
#X connect 23 0 2 0;
#X connect 24 0 2 0;
#X connect 25 0 2 0;
#X connect 26 0 2 0;
#X connect 27 0 26 0;
#X connect 28 0 25 0;
#X connect 29 0 12 1;
#X connect 29 0 19 1;
#X connect 29 0 20 1;
#X connect 29 0 21 1;
#X connect 29 0 22 1;
#X connect 29 0 23 1;
#X connect 29 0 24 1;
#X connect 29 0 26 1;
#X connect 29 0 25 1;
#X restore 143 -213 pd loopers;
#X obj 78 -248 adc~ 1;
#N canvas 602 19 554 120 oscillators 1;
#X obj 29 -177 outlet~;
#N canvas 767 417 336 280 oscillator_one 0;
#X obj 47 -196 outlet~;
#X obj 47 -253 *~;
#X obj 61 -292 line~;
#X obj 11 -322 osc~ 0;
#X obj 11 -396 r osc_1_amp;
#X obj 112 -395 r osc_1_toggle;
#X msg 61 -322 \$1 100;
#X obj 48 -219 *~;
#X obj 112 -254 line~;
#X msg 112 -293 0 100;
#X msg 168 -293 1 100;
#X text 8 -412 OSC ONE;
#X obj 11 -375 r osc_1_freq;
#X obj 112 -321 sel 0 1;
#X obj 211 -394 r osc_1_pad;
#X obj 211 -254 line~;
#X obj 211 -321 sel 0 1;
#X msg 211 -293 0 10;
#X msg 267 -293 1 10;
#X connect 1 0 7 0;
#X connect 2 0 1 1;
#X connect 3 0 1 0;
#X connect 4 0 6 0;
#X connect 5 0 13 0;
#X connect 6 0 2 0;
#X connect 7 0 0 0;
#X connect 8 0 7 1;
#X connect 9 0 8 0;
#X connect 10 0 8 0;
#X connect 12 0 3 0;
#X connect 13 0 9 0;
#X connect 13 1 10 0;
#X connect 14 0 16 0;
#X connect 15 0 7 1;
#X connect 16 0 17 0;
#X connect 16 1 18 0;
#X connect 17 0 15 0;
#X connect 18 0 15 0;
#X restore 30 -209 pd oscillator_one;
#N canvas 283 319 350 339 oscillator_two 0;
#X obj 49 -2173 outlet~;
#X obj 49 -2330 *~;
#X obj 63 -2369 line~;
#X obj 13 -2399 osc~ 0;
#X msg 63 -2399 \$1 100;
#X obj 50 -2246 *~;
#X obj 114 -2331 line~;
#X msg 114 -2370 0 100;
#X msg 170 -2370 1 100;
#X obj 114 -2398 sel 0 1;
#X text 10 -2489 OSC TWO;
#X obj 13 -2473 r osc_2_amp;
#X obj 13 -2452 r osc_2_freq;
#X obj 114 -2472 r osc_2_toggle;
#X obj 213 -2332 line~;
#X obj 213 -2399 sel 0 1;
#X msg 213 -2371 0 10;
#X msg 269 -2371 1 10;
#X obj 213 -2472 r osc_2_pad;
#X obj 119 -2229 *~ 1;
#X connect 1 0 5 0;
#X connect 2 0 1 1;
#X connect 3 0 1 0;
#X connect 4 0 2 0;
#X connect 5 0 19 0;
#X connect 6 0 5 1;
#X connect 7 0 6 0;
#X connect 8 0 6 0;
#X connect 9 0 7 0;
#X connect 9 1 8 0;
#X connect 11 0 4 0;
#X connect 12 0 3 0;
#X connect 13 0 9 0;
#X connect 14 0 5 1;
#X connect 15 0 16 0;
#X connect 15 1 17 0;
#X connect 16 0 14 0;
#X connect 17 0 14 0;
#X connect 18 0 15 0;
#X connect 19 0 0 0;
#X restore 144 -209 pd oscillator_two;
#X obj 143 -177 outlet~;
#X text 29 -230 SIMPLE;
#N canvas 692 357 757 573 harmoniser 0;
#X obj 25 356 outlet~;
#X text 62 -51 3rd;
#X text 146 -51 5th;
#X text 106 -51 4th;
#X obj 18 -2 r 3rd_amp;
#X obj 88 -2 r 4th_amp;
#X obj 154 -2 r 5th_amp;
#X obj 220 -1 r oct_amp;
#X obj 245 205 line~;
#X obj 245 131 sel 0 1;
#X obj 245 108 r osc_3_toggle_1;
#X msg 245 166 0 50;
#X msg 301 166 1 50;
#X obj 368 204 line~;
#X obj 368 130 sel 0 1;
#X msg 368 165 0 50;
#X msg 424 165 1 50;
#X obj 368 107 r osc_3_toggle_2;
#X obj 485 202 line~;
#X obj 485 128 sel 0 1;
#X msg 485 163 0 50;
#X msg 541 163 1 50;
#X obj 608 201 line~;
#X obj 608 127 sel 0 1;
#X msg 608 162 0 50;
#X msg 664 162 1 50;
#X obj 485 105 r osc_3_toggle_3;
#X obj 608 104 r osc_3_toggle_4;
#X obj 61 -129 r osc_1_freq;
#X obj 61 -36 * 1.25;
#X obj 107 -36 * 1.5;
#X obj 147 -36 * 1.75;
#X obj 193 -36 * 2;
#X obj 61 57 osc~;
#X obj 61 95 *~;
#X obj 250 78 line~;
#X msg 250 39 0 100;
#X msg 306 39 1 100;
#X obj 250 11 sel 0 1;
#X obj 349 77 line~;
#X obj 349 10 sel 0 1;
#X msg 349 38 0 10;
#X msg 405 38 1 10;
#X obj 250 -13 r osc_1_toggle;
#X obj 349 -13 r osc_1_pad;
#X text 191 -51 oct;
#X obj 107 57 osc~;
#X obj 107 95 *~;
#X obj 147 56 osc~;
#X obj 147 94 *~;
#X obj 193 56 osc~;
#X obj 193 94 *~;
#X obj 60 131 *~;
#X obj 106 131 *~;
#X obj 146 130 *~;
#X obj 192 130 *~;
#X obj 60 158 *~;
#X obj 106 158 *~;
#X obj 145 158 *~;
#X obj 193 158 *~;
#X obj 92 244 limiter~ 50;
#X obj 25 317 *~;
#X obj 26 289 z~ 64;
#X obj 71 317 *~;
#X obj 72 289 z~ 64;
#X obj 112 317 *~;
#X obj 113 289 z~ 64;
#X obj 158 317 *~;
#X obj 159 289 z~ 64;
#X obj 233 -69 print freq_harm;
#X obj 433 -75 pack f f f f;
#X connect 4 0 52 1;
#X connect 4 0 70 0;
#X connect 5 0 53 1;
#X connect 5 0 70 1;
#X connect 6 0 54 1;
#X connect 6 0 70 2;
#X connect 7 0 55 1;
#X connect 7 0 70 3;
#X connect 8 0 56 1;
#X connect 9 0 11 0;
#X connect 9 1 12 0;
#X connect 10 0 9 0;
#X connect 11 0 8 0;
#X connect 12 0 8 0;
#X connect 13 0 57 1;
#X connect 14 0 15 0;
#X connect 14 1 16 0;
#X connect 15 0 13 0;
#X connect 16 0 13 0;
#X connect 17 0 14 0;
#X connect 18 0 58 1;
#X connect 19 0 20 0;
#X connect 19 1 21 0;
#X connect 20 0 18 0;
#X connect 21 0 18 0;
#X connect 22 0 59 1;
#X connect 23 0 24 0;
#X connect 23 1 25 0;
#X connect 24 0 22 0;
#X connect 25 0 22 0;
#X connect 26 0 19 0;
#X connect 27 0 23 0;
#X connect 28 0 29 0;
#X connect 28 0 30 0;
#X connect 28 0 31 0;
#X connect 28 0 32 0;
#X connect 29 0 33 0;
#X connect 30 0 46 0;
#X connect 31 0 48 0;
#X connect 32 0 50 0;
#X connect 33 0 34 0;
#X connect 34 0 52 0;
#X connect 35 0 34 1;
#X connect 35 0 47 1;
#X connect 35 0 49 1;
#X connect 35 0 51 1;
#X connect 36 0 35 0;
#X connect 37 0 35 0;
#X connect 38 0 36 0;
#X connect 38 1 37 0;
#X connect 39 0 47 1;
#X connect 39 0 49 1;
#X connect 39 0 51 1;
#X connect 40 0 41 0;
#X connect 40 1 42 0;
#X connect 41 0 39 0;
#X connect 42 0 39 0;
#X connect 43 0 38 0;
#X connect 44 0 40 0;
#X connect 46 0 47 0;
#X connect 47 0 53 0;
#X connect 48 0 49 0;
#X connect 49 0 54 0;
#X connect 50 0 51 0;
#X connect 51 0 55 0;
#X connect 52 0 56 0;
#X connect 53 0 57 0;
#X connect 54 0 58 0;
#X connect 55 0 59 0;
#X connect 56 0 60 0;
#X connect 56 0 62 0;
#X connect 57 0 60 0;
#X connect 57 0 64 0;
#X connect 58 0 60 0;
#X connect 58 0 66 0;
#X connect 59 0 60 0;
#X connect 59 0 68 0;
#X connect 60 0 61 1;
#X connect 60 0 63 1;
#X connect 60 0 65 1;
#X connect 60 0 67 1;
#X connect 61 0 0 0;
#X connect 62 0 61 0;
#X connect 63 0 0 0;
#X connect 64 0 63 0;
#X connect 65 0 0 0;
#X connect 66 0 65 0;
#X connect 67 0 0 0;
#X connect 68 0 67 0;
#X connect 70 0 69 0;
#X restore 256 -209 pd harmoniser;
#X obj 257 -177 outlet~;
#X text 255 -226 HARMONISER;
#X obj 345 -176 outlet~;
#N canvas 765 342 658 501 oscillator_four 0;
#X obj 29 201 line~;
#X obj 197 160 line~;
#X msg 197 121 0 100;
#X msg 253 121 1 100;
#X obj 197 86 sel 0 1;
#X obj 117 -114 tabwrite array1;
#N canvas 1007 89 575 522 recieve_waveshapes 0;
#X obj 16 16 r wave_amp_1;
#X obj 16 69 unpack;
#X obj 16 94 s index;
#X obj 68 94 s value;
#X obj 262 465 r index;
#X obj 206 465 r value;
#X obj 262 489 outlet;
#X obj 206 489 outlet;
#X obj 121 69 unpack;
#X obj 121 94 s index;
#X obj 173 94 s value;
#X obj 121 18 r wave_amp_2;
#X obj 336 18 r wave_amp_4;
#X obj 441 15 r wave_amp_5;
#X obj 231 18 r wave_amp_3;
#X obj 231 69 unpack;
#X obj 231 94 s index;
#X obj 283 94 s value;
#X obj 336 69 unpack;
#X obj 336 94 s index;
#X obj 388 94 s value;
#X obj 442 69 unpack;
#X obj 442 94 s index;
#X obj 494 94 s value;
#X obj 15 128 r wave_amp_6;
#X obj 121 128 r wave_amp_7;
#X obj 230 128 r wave_amp_8;
#X obj 337 128 r wave_amp_9;
#X obj 446 128 r wave_amp_10;
#X obj 16 239 r wave_amp_11;
#X obj 120 239 r wave_amp_12;
#X obj 231 239 r wave_amp_13;
#X obj 337 239 r wave_amp_14;
#X obj 446 239 r wave_amp_15;
#X obj 15 345 r wave_amp_16;
#X obj 120 345 r wave_amp_17;
#X obj 233 345 r wave_amp_18;
#X obj 343 345 r wave_amp_19;
#X obj 452 345 r wave_amp_20;
#X obj 15 181 unpack;
#X obj 15 206 s index;
#X obj 67 206 s value;
#X obj 121 181 unpack;
#X obj 121 206 s index;
#X obj 173 206 s value;
#X obj 230 181 unpack;
#X obj 230 206 s index;
#X obj 282 206 s value;
#X obj 337 181 unpack;
#X obj 337 206 s index;
#X obj 389 206 s value;
#X obj 446 181 unpack;
#X obj 446 206 s index;
#X obj 498 206 s value;
#X obj 16 291 unpack;
#X obj 16 316 s index;
#X obj 68 316 s value;
#X obj 120 291 unpack;
#X obj 120 316 s index;
#X obj 172 316 s value;
#X obj 231 291 unpack;
#X obj 231 316 s index;
#X obj 283 316 s value;
#X obj 337 291 unpack;
#X obj 337 316 s index;
#X obj 389 316 s value;
#X obj 447 291 unpack;
#X obj 447 316 s index;
#X obj 499 316 s value;
#X obj 15 400 unpack;
#X obj 15 425 s index;
#X obj 67 425 s value;
#X obj 120 400 unpack;
#X obj 120 425 s index;
#X obj 172 425 s value;
#X obj 233 400 unpack;
#X obj 233 425 s index;
#X obj 285 425 s value;
#X obj 343 400 unpack;
#X obj 343 425 s index;
#X obj 395 425 s value;
#X obj 453 400 unpack;
#X obj 453 425 s index;
#X obj 503 425 s value;
#X msg 336 42 3 \$1;
#X msg 441 42 4 \$1;
#X msg 15 155 5 \$1;
#X msg 121 154 6 \$1;
#X msg 230 155 7 \$1;
#X msg 337 155 8 \$1;
#X msg 446 154 9 \$1;
#X msg 16 265 10 \$1;
#X msg 120 264 11 \$1;
#X msg 231 265 12 \$1;
#X msg 337 264 13 \$1;
#X msg 446 264 14 \$1;
#X msg 15 374 15 \$1;
#X msg 120 373 16 \$1;
#X msg 233 374 17 \$1;
#X msg 343 373 18 \$1;
#X msg 452 373 19 \$1;
#X msg 16 43 0 \$1;
#X msg 121 42 1 \$1;
#X msg 231 43 2 \$1;
#X connect 0 0 101 0;
#X connect 1 0 2 0;
#X connect 1 1 3 0;
#X connect 4 0 6 0;
#X connect 5 0 7 0;
#X connect 8 0 9 0;
#X connect 8 1 10 0;
#X connect 11 0 102 0;
#X connect 12 0 84 0;
#X connect 13 0 85 0;
#X connect 14 0 103 0;
#X connect 15 0 16 0;
#X connect 15 1 17 0;
#X connect 18 0 19 0;
#X connect 18 1 20 0;
#X connect 21 0 22 0;
#X connect 21 1 23 0;
#X connect 24 0 86 0;
#X connect 25 0 87 0;
#X connect 26 0 88 0;
#X connect 27 0 89 0;
#X connect 28 0 90 0;
#X connect 29 0 91 0;
#X connect 30 0 92 0;
#X connect 31 0 93 0;
#X connect 32 0 94 0;
#X connect 33 0 95 0;
#X connect 34 0 96 0;
#X connect 35 0 97 0;
#X connect 36 0 98 0;
#X connect 37 0 99 0;
#X connect 38 0 100 0;
#X connect 39 0 40 0;
#X connect 39 1 41 0;
#X connect 42 0 43 0;
#X connect 42 1 44 0;
#X connect 45 0 46 0;
#X connect 45 1 47 0;
#X connect 48 0 49 0;
#X connect 48 1 50 0;
#X connect 51 0 52 0;
#X connect 51 1 53 0;
#X connect 54 0 55 0;
#X connect 54 1 56 0;
#X connect 57 0 58 0;
#X connect 57 1 59 0;
#X connect 60 0 61 0;
#X connect 60 1 62 0;
#X connect 63 0 64 0;
#X connect 63 1 65 0;
#X connect 66 0 67 0;
#X connect 66 1 68 0;
#X connect 69 0 70 0;
#X connect 69 1 71 0;
#X connect 72 0 73 0;
#X connect 72 1 74 0;
#X connect 75 0 76 0;
#X connect 75 1 77 0;
#X connect 78 0 79 0;
#X connect 78 1 80 0;
#X connect 81 0 82 0;
#X connect 81 1 83 0;
#X connect 84 0 18 0;
#X connect 85 0 21 0;
#X connect 86 0 39 0;
#X connect 87 0 42 0;
#X connect 88 0 45 0;
#X connect 89 0 48 0;
#X connect 90 0 51 0;
#X connect 91 0 54 0;
#X connect 92 0 57 0;
#X connect 93 0 60 0;
#X connect 94 0 63 0;
#X connect 95 0 66 0;
#X connect 96 0 69 0;
#X connect 97 0 72 0;
#X connect 98 0 75 0;
#X connect 99 0 78 0;
#X connect 100 0 81 0;
#X connect 101 0 1 0;
#X connect 102 0 8 0;
#X connect 103 0 15 0;
#X restore 117 -146 pd recieve_waveshapes;
#X floatatom 139 -48 5 0 0 0 - - -;
#X obj 139 -25 tabosc4~ array1;
#X obj 139 53 *~;
#X floatatom 30 110 5 0 0 0 - - -;
#X obj 124 133 +~;
#X obj 125 155 osc~;
#N canvas 0 0 450 300 (subpatch) 0;
#X array array1 19 float 3;
#A 0 -0.21267 -0.221719 -0.131222 0.20362 0.520362 0.61086 0.348416
-0.0950226 -0.239819 -0.167421 0.0769231 0.375566 0.475113 0.466063
0.285068 0.040724 -0.140271 -0.248869 -0.348416;
#X coords 0 1 19 -1 200 140 1 0 0;
#X restore -92 -151 graph;
#X obj 197 58 r osc_4_toggle;
#X obj 18 42 r osc_4_freq;
#X obj 29 146 r osc_4_amp;
#X obj 30 80 r osc_4_carrier;
#X obj 125 255 outlet~;
#X obj 125 188 *~;
#X obj 126 232 *~;
#X obj 139 -73 r wave_play_back_rate;
#X text -103 -189 FM + WAVE SHAP;
#X msg 29 171 \$1 20;
#X obj 283 -44 osc~;
#X obj 284 7 *~;
#X obj 283 -72 r osc_4_freq;
#X obj 299 -19 r osc_4_index;
#X connect 0 0 20 1;
#X connect 1 0 19 1;
#X connect 2 0 1 0;
#X connect 3 0 1 0;
#X connect 4 0 2 0;
#X connect 4 1 3 0;
#X connect 6 0 5 0;
#X connect 6 1 5 1;
#X connect 7 0 8 0;
#X connect 8 0 9 0;
#X connect 9 0 11 1;
#X connect 10 0 11 0;
#X connect 11 0 12 0;
#X connect 12 0 19 0;
#X connect 14 0 4 0;
#X connect 16 0 23 0;
#X connect 17 0 10 0;
#X connect 19 0 20 0;
#X connect 20 0 18 0;
#X connect 21 0 7 0;
#X connect 23 0 0 0;
#X connect 24 0 25 0;
#X connect 25 0 9 1;
#X connect 26 0 24 0;
#X connect 27 0 25 1;
#X restore 346 -208 pd oscillator_four;
#X text 348 -226 WAVESHAPE;
#X connect 1 0 0 0;
#X connect 2 0 3 0;
#X connect 5 0 6 0;
#X connect 9 0 8 0;
#X restore 212 -213 pd oscillators;
#X obj 352 -56 env~ 800;
#X obj 78 -15 vu 15 120 empty empty -1 -8 0 8 -66577 -1 1 0;
#X obj 143 37 dac~ 1 2;
#N canvas 744 215 464 465 mixer 1;
#X obj 115 -124 inlet~;
#X obj 69 220 outlet~;
#X obj 130 220 outlet~;
#X obj 73 -125 inlet~;
#X obj 312 -124 inlet~;
#X obj 162 -124 inlet~;
#X text 68 234 LEFT;
#X text 129 235 RIGHT;
#X obj 310 220 outlet~;
#X text 308 235 LEVELS;
#X obj 11 -150 line~;
#X msg 11 -175 \$1 20;
#X obj 11 -201 r dsp_masterout;
#X obj 72 49 *~;
#X obj 365 -85 line~;
#X obj 365 -149 sel 1 0;
#X obj 365 -174 r loop_mute;
#X obj 311 49 *~;
#X obj 161 49 *~;
#X obj 115 49 *~;
#X obj 310 81 *~;
#X msg 365 -124 0 50;
#X msg 406 -124 1 50;
#X text 73 -142 Loops;
#X text 111 -141 OSC 1;
#X text 160 -141 OSC 2;
#X text 310 -141 Direct;
#X obj 160 149 z~ 64;
#X obj 160 178 *~;
#X obj 71 178 *~;
#X obj 115 177 *~;
#X obj 116 149 z~ 64;
#X obj 71 149 z~ 64;
#X obj 310 149 z~ 64;
#X obj 310 178 *~;
#X obj 350 148 limiter~ 50;
#X obj 89 98 limiter~ 50;
#X obj 214 -124 inlet~;
#X obj 214 49 *~;
#X obj 212 177 *~;
#X obj 213 149 z~ 64;
#X obj 260 -124 inlet~;
#X obj 260 49 *~;
#X obj 258 177 *~;
#X obj 259 149 z~ 64;
#X text 259 -142 WAVE;
#X text 210 -141 HARM;
#X connect 0 0 19 0;
#X connect 3 0 13 0;
#X connect 4 0 17 0;
#X connect 5 0 18 0;
#X connect 10 0 13 1;
#X connect 10 0 19 1;
#X connect 10 0 18 1;
#X connect 10 0 20 1;
#X connect 10 0 38 1;
#X connect 10 0 42 1;
#X connect 11 0 10 0;
#X connect 12 0 11 0;
#X connect 13 0 32 0;
#X connect 13 0 36 0;
#X connect 14 0 17 1;
#X connect 15 0 21 0;
#X connect 15 1 22 0;
#X connect 16 0 15 0;
#X connect 17 0 20 0;
#X connect 18 0 27 0;
#X connect 18 0 36 0;
#X connect 19 0 31 0;
#X connect 19 0 36 0;
#X connect 20 0 33 0;
#X connect 20 0 35 0;
#X connect 21 0 14 0;
#X connect 22 0 14 0;
#X connect 27 0 28 0;
#X connect 28 0 1 0;
#X connect 29 0 1 0;
#X connect 30 0 1 0;
#X connect 31 0 30 0;
#X connect 32 0 29 0;
#X connect 33 0 34 0;
#X connect 34 0 8 0;
#X connect 35 0 34 1;
#X connect 36 0 28 1;
#X connect 36 0 30 1;
#X connect 36 0 29 1;
#X connect 36 0 39 1;
#X connect 36 0 43 1;
#X connect 37 0 38 0;
#X connect 38 0 36 0;
#X connect 38 0 40 0;
#X connect 39 0 1 0;
#X connect 40 0 39 0;
#X connect 41 0 42 0;
#X connect 42 0 44 0;
#X connect 42 0 36 0;
#X connect 43 0 1 0;
#X connect 44 0 43 0;
#X restore 144 -68 pd mixer;
#X obj 273 -28 - 100;
#X obj 274 1 vu 15 120 empty empty -1 -8 0 8 -66577 -1 1 0;
#X text 269 -72 OUTPUT LV;
#X obj 273 -54 env~ 800;
#X connect 0 0 17 0;
#X connect 1 0 2 0;
#X connect 3 0 0 0;
#X connect 4 0 5 0;
#X connect 4 0 11 0;
#X connect 12 0 4 0;
#X connect 13 0 19 0;
#X connect 14 0 3 0;
#X connect 14 0 13 0;
#X connect 14 0 19 5;
#X connect 15 0 19 1;
#X connect 15 1 19 2;
#X connect 15 2 19 3;
#X connect 15 3 19 4;
#X connect 16 0 1 0;
#X connect 19 0 18 0;
#X connect 19 0 23 0;
#X connect 19 2 18 1;
#X connect 19 2 16 0;
#X connect 20 0 21 0;
#X connect 23 0 20 0;
#X coords 0 0 1 1 85 60 0;
